<svg version="1.1" xmlns="http://www.w3.org/2000/svg" viewBox="0 0 1208.830794119494 652.5034146143471" width="1208.830794119494" height="652.5034146143471">
  <!-- svg-source:excalidraw -->
  
  <defs>
    <style>
      @font-face {
        font-family: "Virgil";
        src: url("https://excalidraw.com/Virgil.woff2");
      }
      @font-face {
        font-family: "Cascadia";
        src: url("https://excalidraw.com/Cascadia.woff2");
      }
    </style>
  </defs>
  <rect x="0" y="0" width="1208.830794119494" height="652.5034146143471" fill="#ffffff"></rect><g stroke-linecap="round" transform="translate(10 40.581791480804895) rotate(0 131.5 16)"><path d="M-0.11 -1.07 C59.51 -0.12, 120.14 1.43, 262.47 -1.57 M-0.55 0.55 C64.08 -0.88, 128.34 -0.7, 263.69 0.67 M264.68 -1.95 C262.99 10.2, 261.47 22.23, 264.81 33.48 M263.73 0.67 C262.58 10.51, 262.13 21.92, 263.49 32 M263.15 31.59 C178 33.01, 94.65 32.88, -0.6 30.83 M262.22 31.79 C163.38 31.72, 62.8 31.62, 0.34 32.46 M0.14 33.21 C1.91 19.62, -0.12 9.63, -0.79 -0.15 M0.41 31.33 C-1.17 20.87, 0.43 10.96, -0.64 -0.05" stroke="#000000" stroke-width="1" fill="none"></path></g><g transform="translate(15 46.581791480804895) rotate(0 126.5 10)"><text x="126.5" y="14" font-family="Virgil, Segoe UI Emoji" font-size="16px" fill="#000000" text-anchor="middle" style="white-space: pre;" direction="ltr">Init</text></g><g stroke-linecap="round"><g transform="translate(287.70583338568895 35.81431802475254) rotate(0 -1.647758542952488 299.41415112938876)"><path d="M0.7 -0.69 C0.06 98.92, -2.4 498.4, -2.89 598.1 M-0.38 1.55 C-1.31 101.31, -3.59 500.05, -4 599.52" stroke="#000000" stroke-width="1" fill="none"></path></g></g><g stroke-linecap="round"><g transform="translate(581.7183671546145 42.703571652948085) rotate(0 3.571909025188461 299.51376629410606)"><path d="M0.69 -0.77 C1.68 99.06, 4.52 499.99, 5.37 599.8 M-0.41 1.44 C1.01 100.85, 6.7 498.45, 7.56 598.02" stroke="#000000" stroke-width="1" fill="none"></path></g></g><g transform="translate(46.1621065527429 10) rotate(0 32 10)"><text x="32" y="14" font-family="Virgil, Segoe UI Emoji" font-size="16px" fill="#000000" text-anchor="middle" style="white-space: pre;" direction="ltr">Watcher</text></g><g transform="translate(305.766586040083 10) rotate(0 63.5 10)"><text x="63.5" y="14" font-family="Virgil, Segoe UI Emoji" font-size="16px" fill="#000000" text-anchor="middle" style="white-space: pre;" direction="ltr">watcherResolver</text></g><g transform="translate(606.6019821574419 10.400672237230538) rotate(0 65 10)"><text x="65" y="14" font-family="Virgil, Segoe UI Emoji" font-size="16px" fill="#000000" text-anchor="middle" style="white-space: pre;" direction="ltr">watcherBalancer</text></g><g stroke-linecap="round"><g transform="translate(881.3440032669469 37.962335867309775) rotate(0 3.562789833811621 299.8742939694432)"><path d="M1.19 1.13 C2.16 101.04, 5.68 499.63, 6.76 599.07 M0.36 0.68 C1.09 100.29, 4.64 497.67, 5.82 597.35" stroke="#000000" stroke-width="1" fill="none"></path></g></g><g transform="translate(962.2749418860335 10.13884525978483) rotate(0 20.5 10)"><text x="20.5" y="14" font-family="Virgil, Segoe UI Emoji" font-size="16px" fill="#000000" text-anchor="middle" style="white-space: pre;" direction="ltr">gRPC</text></g><g stroke-linecap="round" transform="translate(318.2666174530382 48.75524596343348) rotate(0 123.5 16)"><path d="M-1.23 -0.73 C76.8 -0.28, 157.19 -1.94, 245.99 -0.49 M0.69 0.72 C91.23 -1.35, 181.04 -1.31, 246.22 -0.75 M247.83 0.89 C248.99 7.47, 247.5 16.3, 245.94 30.14 M246.61 0 C247.69 10.29, 247.18 22.03, 247.89 31.97 M248.33 33 C160.79 32.85, 71.71 31.4, -0.37 32.61 M246.51 31.59 C169.14 32.72, 92.64 33.46, -0.52 32.22 M0.05 30.02 C-1.4 20.98, 1.46 13.96, -1.78 -0.54 M-0.29 31.13 C-0.94 18.91, -0.57 7.02, 0.88 0.45" stroke="#000000" stroke-width="1" fill="none"></path></g><g transform="translate(323.2666174530382 54.75524596343348) rotate(0 118.5 10)"><text x="118.5" y="14" font-family="Virgil, Segoe UI Emoji" font-size="16px" fill="#000000" text-anchor="middle" style="white-space: pre;" direction="ltr">No Addresses</text></g><g stroke-linecap="round" transform="translate(598.6398975937673 47.13048941383158) rotate(0 131.5 16)"><path d="M-0.57 1.41 C73.56 -0.34, 145.74 -1.78, 262.97 -0.67 M0.37 0.43 C67.52 -0.53, 136.15 0.27, 262.26 0.49 M263.35 0.79 C263.87 8.62, 262.12 20.02, 261.7 33.66 M263.85 -0.07 C263.58 8.14, 262.43 15.42, 263.44 31.27 M262.8 30.78 C201.13 32.73, 141.44 34.19, 0.09 31.43 M263.08 31.57 C200.01 32.9, 136.54 32.83, -0.49 31.44 M1.26 33.62 C-1.32 24.75, -0.15 18.54, 1.4 -1.82 M-0.34 32.21 C-0.31 23.95, -0.37 15.47, 0.74 -0.04" stroke="#000000" stroke-width="1" fill="none"></path></g><g transform="translate(603.6398975937673 53.13048941383158) rotate(0 126.5 10)"><text x="126.5" y="14" font-family="Virgil, Segoe UI Emoji" font-size="16px" fill="#000000" text-anchor="middle" style="white-space: pre;" direction="ltr">No sub-connections</text></g><g stroke-linecap="round" transform="translate(905.8307941194939 51.082356913988406) rotate(0 135.5 15)"><path d="M0.36 -0.04 C83.55 1.14, 164.41 -1.02, 271.26 -0.81 M0.62 0.09 C59.58 -1.98, 118.81 -1.35, 270.38 0.73 M270.38 -1.11 C271.6 9.97, 269.76 19.03, 272.74 30.89 M270.04 -0.63 C270.35 9.63, 270.29 19.68, 271.16 29.92 M269.55 30.86 C177.54 28.45, 83.43 28.19, -0.2 29.12 M270.99 29.78 C180.68 28.12, 89.25 28.96, 0.33 30.71 M0.09 30.59 C0.1 18.05, 1.64 5.72, -1.4 -1.22 M0.42 29.48 C0.13 22.21, -0.21 13.65, 0.44 0.2" stroke="#000000" stroke-width="1" fill="none"></path></g><g transform="translate(910.8307941194939 56.082356913988406) rotate(0 130.5 10)"><text x="130.5" y="14" font-family="Virgil, Segoe UI Emoji" font-size="16px" fill="#000000" text-anchor="middle" style="white-space: pre;" direction="ltr">No sub-connections</text></g><g stroke-linecap="round" transform="translate(10 96.9882279952244) rotate(0 131.5 16)"><path d="M-0.01 1.14 C90.58 -2.15, 185.51 -1.46, 264.05 0.58 M-0.76 0.64 C70.94 0.17, 141.32 0.31, 262.73 -0.23 M261.89 -0.55 C262.39 14.44, 261.3 24.03, 263.14 30.4 M262.76 -0.71 C262.59 12.02, 263.55 23.82, 262.34 31.45 M263.8 30.47 C161.44 34.74, 59.34 34.34, 0.3 31.43 M263.67 31.26 C159.96 32.43, 58.36 32.33, -0.5 32.62 M1.53 32.13 C0.9 22.5, 0.74 11.31, -1.96 0.65 M-0.18 32.81 C1.01 24.84, -0.6 15.86, 0.71 -0.7" stroke="#000000" stroke-width="1" fill="none"></path></g><g transform="translate(15 102.9882279952244) rotate(0 126.5 10)"><text x="126.5" y="14" font-family="Virgil, Segoe UI Emoji" font-size="16px" fill="#000000" text-anchor="middle" style="white-space: pre;" direction="ltr">Discover Addresses</text></g><g stroke-linecap="round"><g transform="translate(136.11934286182168 130.2510052145508) rotate(0 0.11889036041975487 9.43592853377686)"><path d="M-0.8 -0.3 C-0.81 3.07, 0.63 15.74, 1.04 19.4 M0.98 -1.51 C0.68 2.05, -0.16 16.82, -0.17 20.38" stroke="#000000" stroke-width="1" fill="none"></path></g><g transform="translate(136.11934286182168 130.2510052145508) rotate(0 0.11889036041975487 9.43592853377686)"><path d="M1.1 21.39 L-6.1 11.4 L6.25 11.49 L1.1 20.75" stroke="none" stroke-width="0" fill="#000000" fill-rule="evenodd"></path><path d="M-0.43 19.96 C-2.57 16.76, -2.25 12.12, -3.89 11.23 M-0.29 19.91 C-1.39 17.31, -2.35 14.19, -4.22 11.32 M-3.93 11.28 C-2.29 11.39, 0.89 10.55, 5.34 11.02 M-4.34 11.29 C-1.64 11.27, 1.02 11.35, 4.7 11.07 M3.53 10.73 C3.68 14.54, 1.77 18.32, -0.49 20.15 M4.6 11.25 C2.9 14.05, 1.5 16.48, 0.33 20.09 M-0.17 20.38 C-0.17 20.38, -0.17 20.38, -0.17 20.38 M-0.17 20.38 C-0.17 20.38, -0.17 20.38, -0.17 20.38" stroke="#000000" stroke-width="1" fill="none"></path></g></g><g stroke-linecap="round" transform="translate(10 153.62535339573878) rotate(0 131.5 16)"><path d="M1.29 -1.15 C63.45 3.01, 125.59 2.67, 264.1 0.21 M-0.24 -0.06 C91.2 -0.19, 181.41 0.01, 263.43 -0.2 M264.26 -0.95 C262.32 6.86, 261.44 14.95, 264.06 32.14 M262.12 -0.96 C263.32 9.88, 262.61 19.63, 263.85 31.69 M263.62 31.44 C190.75 31.22, 116.01 33.25, 0.36 32.78 M262.78 32.53 C164.2 32.65, 64.12 32.33, 0.71 31.82 M-0.64 32.33 C0.75 23.9, 1.02 16.32, -1.9 -0.22 M-0.58 31.98 C0.28 20.02, -1.08 7.78, 0.74 -0.67" stroke="#000000" stroke-width="1" fill="none"></path></g><g transform="translate(15 159.62535339573878) rotate(0 126.5 10)"><text x="126.5" y="14" font-family="Virgil, Segoe UI Emoji" font-size="16px" fill="#000000" text-anchor="middle" style="white-space: pre;" direction="ltr">Try address 10.0.0.1</text></g><g stroke-linecap="round"><g transform="translate(276.87054230539707 166.6372108538926) rotate(0 24.49517615003515 6.342243999591574)"><path d="M-0.6 0.29 C7.72 2.49, 41.06 11.44, 49.59 13.29 M1.29 -0.61 C9.5 1.25, 40.56 9.41, 48.75 11.53" stroke="#000000" stroke-width="1" fill="none"></path></g><g transform="translate(276.87054230539707 166.6372108538926) rotate(0 24.49517615003515 6.342243999591574)"><path d="M47.11 10.78 L32.64 12.72 L36.02 1.56 L50.24 10.95" stroke="none" stroke-width="0" fill="#000000" fill-rule="evenodd"></path><path d="M49.11 11.79 C45.59 13.67, 39.21 13.82, 33.18 14.69 M48.7 11.29 C44.15 12.07, 38.71 13.96, 34.48 14.9 M33.91 13.45 C36.19 10.75, 37.14 7.74, 35.98 2.01 M33.91 14.1 C34.46 10.61, 35.98 8.23, 37.69 1.91 M36.83 2.78 C39.23 5.27, 43.64 6.15, 48.26 10.16 M37.32 2.02 C40.27 4.39, 45.04 8.09, 48.84 12.07 M48.75 11.53 C48.75 11.53, 48.75 11.53, 48.75 11.53 M48.75 11.53 C48.75 11.53, 48.75 11.53, 48.75 11.53" stroke="#000000" stroke-width="1" fill="none"></path></g></g><g stroke-linecap="round" transform="translate(318.2666174530382 173.33443016899946) rotate(0 125 15)"><path d="M0.93 -1.35 C76.65 -1.83, 151.72 -2.75, 249.39 1.53 M-0.32 -0.16 C75.78 1.41, 151.54 1.06, 249.28 -0.77 M248.37 0.72 C248.45 9.87, 250.32 20.41, 250.5 31.16 M250.58 0.02 C250.22 9.8, 250.65 20.43, 250.95 29.53 M249.13 31.03 C158.56 28.77, 66.98 29.63, 1.43 29.82 M249.25 30.17 C162.79 28.71, 75.43 28.05, 0.3 29.47 M-1.54 29.98 C-0.76 22.53, -1.43 14.93, -1.99 -0.94 M0.16 29.34 C-0.06 21.01, -0.29 13.58, 0.8 0.69" stroke="#000000" stroke-width="1" fill="none"></path></g><g transform="translate(323.2666174530382 178.33443016899946) rotate(0 120 10)"><text x="120" y="14" font-family="Virgil, Segoe UI Emoji" font-size="16px" fill="#000000" text-anchor="middle" style="white-space: pre;" direction="ltr">Addr = 10.0.0.1</text></g><g stroke-linecap="round"><g transform="translate(572.0562125007859 192.39143963160313) rotate(0 166.68462976737896 0.5189067236055962)"><path d="M0.54 0.32 C55.91 0.54, 277.63 0.55, 332.83 0.72" stroke="#000000" stroke-width="1.5" fill="none" stroke-dasharray="1.5 7"></path></g><g transform="translate(572.0562125007859 192.39143963160313) rotate(0 166.68462976737896 0.5189067236055962)"><path d="M331.64 1.05 L318.19 5.45 L319.57 -4.43 L334.43 0.94" stroke="none" stroke-width="0" fill="#000000" fill-rule="evenodd"></path><path d="M333.23 0.97 C328.14 1.87, 324.21 4.92, 318.79 5.85 M319.61 7.23 C318.61 1.39, 319.44 -1.93, 320.47 -4.9 M318.84 -6.7 C324.02 -4.73, 327.08 -1.8, 331.38 -0.27 M332.83 0.72 C332.83 0.72, 332.83 0.72, 332.83 0.72" stroke="#000000" stroke-width="1.5" fill="none"></path></g></g><g stroke-linecap="round" transform="translate(906.0926210969396 179.63198152917812) rotate(0 141.5 15)"><path d="M-1.2 1.39 C59.1 -0.83, 120.57 0.89, 284.51 0.18 M-0.32 0.66 C98.56 -1.36, 197.97 -1.1, 283.14 -0.52 M282.03 -0.67 C283.86 8.5, 284.02 14.64, 283.84 31.91 M282.26 -0.33 C283.43 7.44, 283.75 13.37, 282.66 30.34 M282.96 30.11 C171.87 31.91, 58.71 31.85, 0.19 31.5 M283.36 30.01 C187.86 30.2, 91.17 30.1, -0.64 29.29 M0.61 31.97 C-0.6 23.3, -0.23 14.86, -1.93 0.42 M0.59 29.8 C-0.52 22.64, -0.62 16.77, 0.97 0.12" stroke="#000000" stroke-width="1" fill="none"></path></g><g transform="translate(911.0926210969396 184.63198152917812) rotate(0 136.5 10)"><text x="136.5" y="14" font-family="Virgil, Segoe UI Emoji" font-size="16px" fill="#000000" text-anchor="middle" style="white-space: pre;" direction="ltr">Create sub-conn for 10.0.0.1</text></g><g stroke-linecap="round"><g transform="translate(904.0082461702295 210.30337139679068) rotate(0 -22.027499170973215 11.478393804058214)"><path d="M-1.07 -0.4 C-8.54 3.67, -37.44 20.33, -44.62 24.62 M0.56 -1.66 C-6.53 2.02, -34.71 18.45, -42.31 22.63" stroke="#000000" stroke-width="1" fill="none"></path></g><g transform="translate(904.0082461702295 210.30337139679068) rotate(0 -22.027499170973215 11.478393804058214)"><path d="M-43.76 21.28 L-32.79 11.6 L-27.61 19.9 L-43.22 21.97" stroke="none" stroke-width="0" fill="#000000" fill-rule="evenodd"></path><path d="M-42.81 21.67 C-39.26 18.51, -35.68 14, -34.28 11.05 M-42.76 22.15 C-38.85 17.99, -36.31 13.68, -33.07 10.14 M-32.79 11.56 C-31.91 12.46, -30.14 15.28, -26.76 20.94 M-34.18 10.49 C-31.62 13.45, -29.45 16.53, -27.66 20.97 M-26.02 20.9 C-30.25 22.39, -34.35 22.19, -42.23 22.6 M-27.44 21.79 C-30.82 21.62, -35.8 22.82, -42.27 21.94 M-42.31 22.63 C-42.31 22.63, -42.31 22.63, -42.31 22.63 M-42.31 22.63 C-42.31 22.63, -42.31 22.63, -42.31 22.63" stroke="#000000" stroke-width="1" fill="none"></path></g></g><g stroke-linecap="round" transform="translate(598.6398975937673 216.09425457058114) rotate(0 130 15.5)"><path d="M-1.15 -1.16 C81.08 -1.88, 164.24 -0.08, 258.5 0.13 M-0.47 -0.45 C71.78 1.87, 144.39 1.63, 260.16 0.54 M261.21 1.55 C261.53 6.93, 258.89 17.89, 258.59 31.35 M260.16 -0.95 C260.59 7.22, 260.4 14.48, 260.65 31.98 M258.66 32.18 C167.86 31.87, 76.31 32.3, 0.07 32.15 M260.07 30.89 C202.27 31.36, 143.56 31.57, -0.4 31.26 M-1.43 31.02 C0.54 23.44, -2.03 12.03, -1.8 -1.03 M0.83 31.88 C-0.12 21.54, 0.34 12, -0.98 0.67" stroke="#000000" stroke-width="1" fill="none"></path></g><g transform="translate(603.6398975937673 221.59425457058114) rotate(0 125 10)"><text x="125" y="14" font-family="Virgil, Segoe UI Emoji" font-size="16px" fill="#000000" text-anchor="middle" style="white-space: pre;" direction="ltr">10.0.0.1 is "connecting"</text></g><g stroke-linecap="round"><g transform="translate(324.11347929886233 200.68149625871592) rotate(0 -23.146661375412123 9.235362241472103)"><path d="M1 -0.76 C-7.02 2.52, -39.53 16, -47.3 19.23 M0.07 1.46 C-7.63 4.44, -37.26 14.43, -44.91 17.52" stroke="#000000" stroke-width="1" fill="none"></path></g><g transform="translate(324.11347929886233 200.68149625871592) rotate(0 -23.146661375412123 9.235362241472103)"><path d="M-45.53 17.28 L-34.3 7.2 L-29.23 17.58 L-46.05 16.03" stroke="none" stroke-width="0" fill="#000000" fill-rule="evenodd"></path><path d="M-45.85 16.75 C-39.94 14.82, -36.78 10.65, -34.95 5.4 M-44.95 16.83 C-42.37 15.84, -40.23 13.34, -34.68 6.36 M-35.27 6.92 C-32 10.99, -31.23 13.91, -30.84 18.16 M-33.91 6.51 C-33.06 10.59, -32 13.89, -30.43 18.38 M-31.44 19.54 C-33.56 18.82, -37.95 17.07, -43.99 17.93 M-30.65 18.74 C-35.22 18.35, -40.64 17.74, -45.12 18.16 M-44.91 17.52 C-44.91 17.52, -44.91 17.52, -44.91 17.52 M-44.91 17.52 C-44.91 17.52, -44.91 17.52, -44.91 17.52" stroke="#000000" stroke-width="1" fill="none"></path></g></g><g stroke-linecap="round" transform="translate(10 209.91964566186834) rotate(0 131.5 15)"><path d="M-0.35 1.56 C71.58 -2.52, 141.85 -2.34, 262.38 0.13 M-0.15 -0.73 C78.22 0.92, 156.86 1.12, 262.89 -0.26 M264.42 -0.69 C261.66 6.37, 262.07 16.51, 261.57 30.69 M262.56 -0.99 C262.74 9.54, 262.74 18.72, 263.66 29.66 M261.79 30.26 C200.59 31.06, 139.86 31.26, 1.17 31.27 M263.57 29.69 C180.67 29.83, 98.99 29.7, -0.68 30.16 M-1.55 31.56 C-0.52 21.33, -1.49 13.74, -1.06 -0.61 M0.92 30.32 C0.06 19.87, -0.07 11.37, -0.84 0.87" stroke="#000000" stroke-width="1" fill="none"></path></g><g transform="translate(15 214.91964566186834) rotate(0 126.5 10)"><text x="126.5" y="14" font-family="Virgil, Segoe UI Emoji" font-size="16px" fill="#000000" text-anchor="middle" style="white-space: pre;" direction="ltr">wait for connection to 10.0.0.1</text></g><g stroke-linecap="round" transform="translate(905.8307941194939 245.86478293647906) rotate(0 143 16)"><path d="M-0.43 0.96 C100.69 0.61, 201.85 1.74, 285.74 -1.26 M-0.55 0.32 C65.92 -1.55, 132.53 -1.26, 286.35 0.38 M285.2 1.81 C287.32 11.89, 287.22 19.91, 285.21 30.02 M285.11 0.85 C286.64 11.74, 286.32 21.56, 286.09 32.9 M285.67 33.43 C194.56 28.79, 101.8 31.4, 0.45 31.48 M285.32 31.96 C203.85 31.33, 121.57 32.28, -0.11 32.49 M0.95 30.19 C-1.37 22.1, -0.58 13.21, -1.33 1.21 M0.09 32.13 C0.07 23.33, -0.51 13.6, -0.48 0.85" stroke="#000000" stroke-width="1" fill="none"></path></g><g transform="translate(910.8307941194939 251.86478293647906) rotate(0 138 10)"><text x="138" y="14" font-family="Virgil, Segoe UI Emoji" font-size="16px" fill="#000000" text-anchor="middle" style="white-space: pre;" direction="ltr">Sub-conn for 10.0.0.1 is "ready"</text></g><g stroke-linecap="round"><g transform="translate(902.5977728215125 266.0919754492934) rotate(0 -21.085558803401227 12.889305198028069)"><path d="M0 -0.75 C-7.21 3.39, -35.44 20.81, -42.17 25.26 M-1.46 1.47 C-8.38 5.74, -33.38 22.22, -39.93 26.53" stroke="#000000" stroke-width="1" fill="none"></path></g><g transform="translate(902.5977728215125 266.0919754492934) rotate(0 -21.085558803401227 12.889305198028069)"><path d="M-38.37 26.5 L-30.19 13.66 L-25.08 23.79 L-40.88 27.51" stroke="none" stroke-width="0" fill="#000000" fill-rule="evenodd"></path><path d="M-40.86 25.42 C-37.54 22.64, -33.64 15.36, -31.9 15.11 M-39.19 26.55 C-37.82 23.19, -36.36 19.07, -32.73 13.88 M-31.48 13.59 C-29.89 17.07, -26.32 23.16, -23.98 24.9 M-31.52 14.16 C-29.83 18.4, -26.74 21.86, -24.85 24.25 M-24.91 25.16 C-28.18 25.91, -31.08 26.71, -38.99 25.87 M-24.48 24.54 C-28.09 24.82, -32.26 24.86, -39.39 26.49 M-39.93 26.53 C-39.93 26.53, -39.93 26.53, -39.93 26.53 M-39.93 26.53 C-39.93 26.53, -39.93 26.53, -39.93 26.53" stroke="#000000" stroke-width="1" fill="none"></path></g></g><g stroke-linecap="round" transform="translate(598.6398975937673 274.90492083934987) rotate(0 130.5 15)"><path d="M-1.24 -1.53 C88.49 -1.3, 173.82 -0.26, 262.46 1.48 M0.5 0.53 C99.7 -2.52, 200.16 -1.46, 261.2 -0.35 M261.37 0.53 C262.37 6.94, 261.74 17.95, 260.59 28.94 M261.93 0.2 C260.56 10.59, 260.37 23.23, 261.69 30.29 M260.23 29.23 C195.33 28.14, 131.69 29.38, -1.48 30.46 M260.86 30.31 C187.28 29.35, 112.94 29.05, -0.49 30.33 M1.1 28.67 C0.8 16.9, 0.41 5.85, -1.51 0.79 M0.7 29.16 C-0.26 20.91, 0.05 9.45, 0.44 -0.49" stroke="#000000" stroke-width="1" fill="none"></path></g><g transform="translate(603.6398975937673 279.90492083934987) rotate(0 125.5 10)"><text x="125.5" y="14" font-family="Virgil, Segoe UI Emoji" font-size="16px" fill="#000000" text-anchor="middle" style="white-space: pre;" direction="ltr">10.0.0.1 is "ready"</text></g><g transform="translate(618.637824338758 166.66370861343148) rotate(0 21.5 10)"><text x="21.5" y="14" font-family="Virgil, Segoe UI Emoji" font-size="16px" fill="#000000" text-anchor="middle" style="white-space: pre;" direction="ltr">async</text></g><g stroke-linecap="round"><g transform="translate(594.9436137463099 290.61491280004975) rotate(0 -159.9658084266116 -2.119447259023673)"><path d="M-1.01 -0.12 C-54.35 -0.99, -266.57 -3.6, -320.05 -4.12 M0.65 -1.23 C-52.77 -1.4, -267.22 -2.04, -320.59 -2.7" stroke="#000000" stroke-width="1" fill="none"></path></g><g transform="translate(594.9436137463099 290.61491280004975) rotate(0 -159.9658084266116 -2.119447259023673)"><path d="M-318.73 -3.38 L-307.41 -7.69 L-306.98 3.26 L-321.79 -1.74" stroke="none" stroke-width="0" fill="#000000" fill-rule="evenodd"></path><path d="M-320.74 -1.73 C-316.86 -5.77, -311.67 -6.49, -305.78 -8.75 M-319.95 -2.94 C-315.28 -5.61, -310.4 -6.76, -307.01 -8.24 M-308.08 -9.29 C-307.53 -6.08, -305.76 -1.75, -307.65 3.05 M-307.19 -8.8 C-306.57 -5.71, -306.45 -3.36, -307.12 3.83 M-305.94 4.65 C-310.33 2.23, -315.61 -1.76, -320.5 -2.16 M-306.91 4.46 C-310.79 2.22, -314.72 0.22, -320.93 -3.34 M-320.59 -2.7 C-320.59 -2.7, -320.59 -2.7, -320.59 -2.7 M-320.59 -2.7 C-320.59 -2.7, -320.59 -2.7, -320.59 -2.7" stroke="#000000" stroke-width="1" fill="none"></path></g></g><g stroke-linecap="round" transform="translate(10 273.3413802852292) rotate(0 131.5 15)"><path d="M-1.39 0.74 C95.4 0.81, 188.94 3.06, 261.55 -0.32 M0.23 -0.47 C93.92 0.59, 187.56 0.46, 263.26 -0.16 M261.24 0.16 C264.13 9.5, 262.1 18.48, 263.69 28.71 M263.86 0.61 C263.08 10.87, 262.03 23.2, 262.15 30.16 M263.68 30.85 C163.99 29.32, 63.11 27.48, -0.48 30.22 M263.51 29.72 C166.62 27.5, 72.06 28.05, -0.21 29.47 M-1.12 28.39 C1.96 20.69, -0.39 9.8, -1.12 -1.54 M0.59 31 C0.12 20.78, 1.11 13.41, -0.99 0.2" stroke="#2b8a3e" stroke-width="1" fill="none"></path></g><g transform="translate(15 278.3413802852292) rotate(0 126.5 10)"><text x="126.5" y="14" font-family="Virgil, Segoe UI Emoji" font-size="16px" fill="#2b8a3e" text-anchor="middle" style="white-space: pre;" direction="ltr">Connected to 10.0.0.1</text></g><g stroke-linecap="round"><g transform="translate(135.92838192118597 240.32223408933805) rotate(0 -0.08698166304043298 16.532836098633197)"><path d="M0.51 0.76 C0.57 6.13, 0.43 26.24, 0.07 31.63 M-0.68 0.11 C-0.69 5.71, -0.75 27.75, -0.5 32.96" stroke="#000000" stroke-width="1" fill="none"></path></g><g transform="translate(135.92838192118597 240.32223408933805) rotate(0 -0.08698166304043298 16.532836098633197)"><path d="M-1.22 33.77 L-6.29 19.88 L5.45 19.28 L0.74 33.29" stroke="none" stroke-width="0" fill="#000000" fill-rule="evenodd"></path><path d="M0.44 33.84 C-2.74 28.05, -2.7 25.36, -6.29 19.15 M-0.74 33.28 C-2.38 28.6, -4.34 25.08, -7.68 19.27 M-7.37 19.94 C-4.23 18.48, -1.35 20.42, 6.64 19.21 M-7.1 19.1 C-3.51 19.88, -0.29 19.15, 6.06 19.24 M4.66 18.93 C5.3 21.53, 1.21 24.72, 0.03 34.35 M5.06 19.27 C3.6 22.34, 2.05 26.09, -0.57 32.72 M-0.5 32.96 C-0.5 32.96, -0.5 32.96, -0.5 32.96 M-0.5 32.96 C-0.5 32.96, -0.5 32.96, -0.5 32.96" stroke="#000000" stroke-width="1" fill="none"></path></g></g><g stroke-linecap="round"><g transform="translate(573.9072218382862 440.601767707165) rotate(0 165.02680713702216 0.05294161593883473)"><path d="M0.08 0.4 C55.03 0.54, 275.16 -0.04, 329.97 -0.31" stroke="#000000" stroke-width="1.5" fill="none" stroke-dasharray="1.5 7"></path></g><g transform="translate(573.9072218382862 440.601767707165) rotate(0 165.02680713702216 0.05294161593883473)"><path d="M329.2 0.6 L315.73 4.24 L317.2 -7.97 L328.13 0.04" stroke="none" stroke-width="0" fill="#000000" fill-rule="evenodd"></path><path d="M330.47 0.02 C326.97 0.8, 321.44 3.92, 317.6 6.16 M316.44 6.37 C317.02 2.13, 315.83 -0.14, 315.67 -6.03 M317.56 -6.77 C320.2 -6.39, 321.62 -5.1, 330.44 0.63 M329.97 -0.31 C329.97 -0.31, 329.97 -0.31, 329.97 -0.31" stroke="#000000" stroke-width="1.5" fill="none"></path></g></g><g stroke-linecap="round" transform="translate(905.8307941194939 423.64840265124803) rotate(0 143.5 15)"><path d="M1.45 1.18 C83.2 1.28, 168.01 1.67, 287.48 1.05 M0.44 0.21 C66.78 0.91, 135.58 1.51, 287.58 -0.6 M286.99 -1.52 C288.38 9.56, 286.45 22.8, 286.1 29.79 M287.29 -0.6 C287.65 5.7, 286.52 13.56, 287.42 30.94 M286.42 29.91 C202.19 28.91, 114.34 31.67, 0.81 29.36 M286.9 30.69 C209.4 27.85, 133 28.91, 0.64 29.58 M1.97 29.43 C0.67 22.33, -1.21 13, 1.69 -0.41 M0.25 29.06 C-0.4 21.46, 0.16 11.47, 0.46 -0.14" stroke="#000000" stroke-width="1" fill="none"></path></g><g transform="translate(910.8307941194939 428.64840265124803) rotate(0 138.5 10)"><text x="138.5" y="14" font-family="Virgil, Segoe UI Emoji" font-size="16px" fill="#000000" text-anchor="middle" style="white-space: pre;" direction="ltr">Create sub-conn for 10.0.0.2</text></g><g stroke-linecap="round"><g transform="translate(137.60440457489403 305.41246780172423) rotate(0 -0.3908729077395492 12.948967152611658)"><path d="M0.02 0.27 C0.26 4.69, 0.68 21.1, 0.65 25.35 M-1.43 -0.63 C-1.2 4.04, 0.1 21.94, 0.19 26.53" stroke="#000000" stroke-width="1" fill="none"></path></g><g transform="translate(137.60440457489403 305.41246780172423) rotate(0 -0.3908729077395492 12.948967152611658)"><path d="M0.67 26.21 L-4.96 15.56 L4.34 14.9 L-1.41 27.02" stroke="none" stroke-width="0" fill="#000000" fill-rule="evenodd"></path><path d="M0.48 27.53 C-1.86 23.93, -2.86 19.89, -7.13 15.92 M-0.44 26.36 C-1.57 22.43, -3.65 18.06, -5.35 15.48 M-4.89 14.98 C-2.04 13.95, -0.98 15.36, 4.5 15.12 M-6.06 14.88 C-2.75 14.79, 1.47 14.24, 5.18 14.87 M5.35 13.41 C3.87 19.11, 2.14 22.47, 1.42 26.77 M5.67 14.65 C3.63 18.81, 1.75 24.19, 0.13 26.46 M0.19 26.53 C0.19 26.53, 0.19 26.53, 0.19 26.53 M0.19 26.53 C0.19 26.53, 0.19 26.53, 0.19 26.53" stroke="#000000" stroke-width="1" fill="none"></path></g></g><g stroke-linecap="round" transform="translate(10 456.37390839982345) rotate(0 131.5 16)"><path d="M-1.02 -0.23 C75.81 -2.4, 149.2 -2.95, 262.25 -1.52 M-0.1 0.64 C53.1 -1.26, 105.53 -2.45, 263.02 -0.36 M264.37 -0.03 C261.5 8.15, 262.18 20, 262.37 32.15 M263.16 -0.46 C263.45 8.49, 262.96 16.75, 263.53 32.67 M262.85 31.39 C166.06 30.64, 66.78 32.6, -0.05 31.65 M262.25 31.42 C180 31.79, 98.16 30.87, -0.57 32.05 M0.96 31.22 C-1.85 18.12, -2.14 7.51, 1.1 1.37 M-0.55 32.63 C-0.25 24.13, 0.1 15.78, 0.57 0.59" stroke="#000000" stroke-width="1" fill="none"></path></g><g transform="translate(15 462.37390839982345) rotate(0 126.5 10)"><text x="126.5" y="14" font-family="Virgil, Segoe UI Emoji" font-size="16px" fill="#000000" text-anchor="middle" style="white-space: pre;" direction="ltr">wait for connection to 10.0.0.2</text></g><g stroke-linecap="round" transform="translate(318.2666174530382 425.6074715712757) rotate(0 125 15)"><path d="M-0.61 -1.11 C95.18 0.72, 192.5 2.89, 249.53 1.63 M0.39 -0.82 C84.91 -2.45, 169.95 -1.23, 250.28 -0.8 M249.09 -0.91 C248.98 7.38, 250.73 12.99, 251.15 30.7 M249.82 -0.58 C249.83 8.59, 249.76 18.7, 249.66 29.61 M248.38 30.9 C189.35 30.34, 131.66 27.79, 1.33 30.94 M250.8 29.59 C168.08 28.95, 84.97 28.99, 0.46 30.73 M-0.83 28.58 C-1.24 20.11, -0.47 5.92, -1.21 1.66 M0.01 29.88 C-1.1 19.91, -0.94 9.25, -0.45 -0.57" stroke="#000000" stroke-width="1" fill="none"></path></g><g transform="translate(323.2666174530382 430.6074715712757) rotate(0 120 10)"><text x="120" y="14" font-family="Virgil, Segoe UI Emoji" font-size="16px" fill="#000000" text-anchor="middle" style="white-space: pre;" direction="ltr">Addr = 10.0.0.2</text></g><g stroke-linecap="round"><g transform="translate(274.43135658000983 414.2462973740512) rotate(0 18.075352766249125 5.448736055876452)"><path d="M-0.13 -0.83 C6.12 1, 31.49 8.39, 37.81 10.55 M-1.66 1.35 C4.46 3.36, 30.69 10.24, 37.2 11.72" stroke="#000000" stroke-width="1" fill="none"></path></g><g transform="translate(274.43135658000983 414.2462973740512) rotate(0 18.075352766249125 5.448736055876452)"><path d="M37.8 12.94 L21.7 14.6 L26.73 0.43 L37.37 10.89" stroke="none" stroke-width="0" fill="#000000" fill-rule="evenodd"></path><path d="M36.16 12.51 C31.53 13.43, 28.71 12.41, 21.94 14.12 M36.66 12.36 C33.54 12.94, 30.65 13.62, 21.75 14.07 M21.83 14.91 C22.33 12.09, 24.27 7.22, 24.55 2.07 M22.06 14.22 C23.4 10.21, 24.12 6.27, 26.01 1.85 M26.82 2.72 C29.37 4.98, 35.45 8.96, 36.29 11.95 M25.2 1.84 C29.76 6.44, 33.13 8.59, 36.97 12.24 M37.2 11.72 C37.2 11.72, 37.2 11.72, 37.2 11.72 M37.2 11.72 C37.2 11.72, 37.2 11.72, 37.2 11.72" stroke="#000000" stroke-width="1" fill="none"></path></g></g><g transform="translate(616.8055066909601 410.12164666708577) rotate(0 21.5 10)"><text x="21.5" y="14" font-family="Virgil, Segoe UI Emoji" font-size="16px" fill="#000000" text-anchor="middle" style="white-space: pre;" direction="ltr">async</text></g><g stroke-linecap="round" transform="translate(10 333.85325438210657) rotate(0 131.5 16)"><path d="M1.55 -0.21 C85.64 1.21, 168.49 1.2, 263.48 0.2 M-0.52 0.59 C102.4 -1.44, 204.2 -1.51, 262.37 0.25 M263.95 0.47 C262.74 11.75, 261.97 24.98, 264.25 32.43 M262.91 -0.66 C262.29 10.84, 262.3 22.22, 262.84 32.47 M261.73 32.39 C177.61 33.54, 89.69 32.99, -0.51 30.76 M262.46 32.45 C193.34 31.13, 124.65 30.44, 0.63 31.44 M1.88 33.58 C-1.15 22.78, -2.19 7.67, -0.58 -0.1 M0.23 32.88 C-0.55 24.72, -0.38 19.61, 0.39 -0.77" stroke="#000000" stroke-width="1" fill="none"></path></g><g transform="translate(15 339.85325438210657) rotate(0 126.5 10)"><text x="126.5" y="14" font-family="Virgil, Segoe UI Emoji" font-size="16px" fill="#000000" text-anchor="middle" style="white-space: pre;" direction="ltr">Pick new server</text></g><g stroke-linecap="round" transform="translate(598.6398975937673 464.97944807438216) rotate(0 134.5 25)"><path d="M-0.23 1.44 C68.72 0.85, 141.92 1.8, 270.3 -1 M-0.47 -0.47 C64.21 2.46, 128.42 2.22, 269.43 0.35 M268.95 1.56 C267.46 8.31, 267.46 18.79, 269.13 49.76 M268.24 -0.35 C268.71 11.87, 269.25 24.6, 268.88 49.87 M269.36 49.82 C185.67 51.7, 100.1 52.01, 1.54 50.98 M269.22 49.87 C185.1 51.88, 100.85 51.73, -0.54 50.38 M1.66 50.27 C-1.33 29.59, -2.12 10.68, -1.08 -1.07 M-0.23 49.78 C-0.19 33.18, -0.19 15.17, 0.3 0.27" stroke="#000000" stroke-width="1" fill="none"></path></g><g transform="translate(603.6398975937673 469.97944807438216) rotate(0 129.5 20)"><text x="129.5" y="14" font-family="Virgil, Segoe UI Emoji" font-size="16px" fill="#000000" text-anchor="middle" style="white-space: pre;" direction="ltr">10.0.0.1 is "ready"</text><text x="129.5" y="34" font-family="Virgil, Segoe UI Emoji" font-size="16px" fill="#000000" text-anchor="middle" style="white-space: pre;" direction="ltr">10.0.0.2 is "connecting"</text></g><g stroke-linecap="round"><g transform="translate(904.3626960727174 455.7421638799433) rotate(0 -17.636730651948483 12.152023706013551)"><path d="M0.67 -0.83 C-5.22 3.35, -29.82 20.97, -35.95 25.13 M-0.43 1.35 C-5.9 5.21, -28.14 19.55, -33.68 23.59" stroke="#000000" stroke-width="1" fill="none"></path></g><g transform="translate(904.3626960727174 455.7421638799433) rotate(0 -17.636730651948483 12.152023706013551)"><path d="M-33.12 25.29 L-25.9 12.35 L-18.44 21.83 L-33.15 21.7" stroke="none" stroke-width="0" fill="#000000" fill-rule="evenodd"></path><path d="M-34.72 22.52 C-30.38 19.05, -29.65 17.18, -27.38 10.1 M-33.63 23.11 C-31.84 19.48, -29.96 15.73, -26.42 11.22 M-26.76 10.5 C-23.26 13.08, -21.48 17.52, -17.62 19.93 M-26.05 11.03 C-23.85 13.69, -22.18 15.09, -18.89 20.77 M-19.77 20.37 C-24.71 22.82, -29.55 23.66, -32.52 22.51 M-19.14 21.77 C-23.44 21.31, -28.01 23.32, -33.28 23.47 M-33.68 23.59 C-33.68 23.59, -33.68 23.59, -33.68 23.59 M-33.68 23.59 C-33.68 23.59, -33.68 23.59, -33.68 23.59" stroke="#000000" stroke-width="1" fill="none"></path></g></g><g stroke-linecap="round" transform="translate(905.8307941194939 493.1360730665292) rotate(0 144.5 15)"><path d="M0.06 -0.7 C85.39 -0.69, 168.15 -0.45, 290.48 0.96 M0.51 -0.65 C104.34 -1.1, 208.9 -0.21, 289.61 -0.74 M290.51 -0.14 C288.73 4.73, 290.08 14.03, 289.97 29.99 M288.66 0.41 C288.49 7.92, 289.89 14.26, 289.88 29.59 M289.15 28.69 C200.97 32.12, 114.59 31.09, -1.19 29.59 M288.34 30.35 C187.8 28.72, 86 29.28, -0.63 29.8 M-0.44 30.38 C0.15 22.98, -1.16 17.9, 1.51 1.21 M-0.27 29.08 C0.72 22.74, -0.1 15.64, 0.29 -0.37" stroke="#000000" stroke-width="1" fill="none"></path></g><g transform="translate(910.8307941194939 498.1360730665292) rotate(0 139.5 10)"><text x="139.5" y="14" font-family="Virgil, Segoe UI Emoji" font-size="16px" fill="#000000" text-anchor="middle" style="white-space: pre;" direction="ltr">Sub-conn for 10.0.0.2 is "ready"</text></g><g stroke-linecap="round" transform="translate(598.6398975937673 526.2086369918925) rotate(0 133.5 25)"><path d="M0.16 -1 C96.38 -1.53, 190.9 -1.57, 266.03 -1.5 M0.3 -0.53 C104.24 0, 208.07 0.31, 266.89 0.07 M268.08 -1.49 C266.87 18.89, 267.91 38.6, 268.34 50.87 M266.75 0.2 C267.35 14.26, 266.96 28.91, 266.99 50.64 M267.29 50.67 C180.75 50.71, 95.23 50.08, 0.14 49.54 M266.71 50.02 C182.98 50.84, 100.02 50.96, 0.75 50.48 M-1.26 49.93 C0.79 37.41, 2.11 28.26, -0.14 0.74 M0.4 50.82 C-1.06 30.85, -0.81 12.98, -0.72 -0.52" stroke="#000000" stroke-width="1" fill="none"></path></g><g transform="translate(603.6398975937673 531.2086369918925) rotate(0 128.5 20)"><text x="128.5" y="14" font-family="Virgil, Segoe UI Emoji" font-size="16px" fill="#000000" text-anchor="middle" style="white-space: pre;" direction="ltr">10.0.0.1 is "ready"</text><text x="128.5" y="34" font-family="Virgil, Segoe UI Emoji" font-size="16px" fill="#000000" text-anchor="middle" style="white-space: pre;" direction="ltr">10.0.0.2 is "ready"</text></g><g stroke-linecap="round"><g transform="translate(904.8307941194939 518.4257911626901) rotate(0 -18.54416080027204 12.803781055446507)"><path d="M-1.16 0.2 C-7.59 4.41, -31.65 22.09, -37.52 26.35 M0.43 -0.74 C-5.74 3.65, -29.14 20.05, -35.4 24.71" stroke="#000000" stroke-width="1" fill="none"></path></g><g transform="translate(904.8307941194939 518.4257911626901) rotate(0 -18.54416080027204 12.803781055446507)"><path d="M-33.68 26.06 L-27.77 13.38 L-21.48 21.99 L-33.94 26.16" stroke="none" stroke-width="0" fill="#000000" fill-rule="evenodd"></path><path d="M-35.15 23.28 C-31.54 19.72, -29.46 16.07, -26.84 11.11 M-35.65 25.19 C-32.06 20.01, -30.67 15.94, -28.4 10.97 M-27.1 12.65 C-25.59 15.3, -24.63 16.06, -20.14 21.56 M-27.8 11.73 C-25.35 14.24, -24.46 16.79, -20.37 21.52 M-20.84 21.42 C-24.84 23.02, -28.41 23.52, -36.1 25.69 M-19.93 22.39 C-24.48 22.32, -28.93 24.04, -36.05 24.81 M-35.4 24.71 C-35.4 24.71, -35.4 24.71, -35.4 24.71 M-35.4 24.71 C-35.4 24.71, -35.4 24.71, -35.4 24.71" stroke="#000000" stroke-width="1" fill="none"></path></g></g><g stroke-linecap="round" transform="translate(905.8307941194939 549.0285151096286) rotate(0 146.5 16)"><path d="M-1.13 0.91 C81.53 -0.51, 162.6 1.44, 294.07 1.05 M0.07 -0.74 C106.16 0.54, 211.7 0.24, 292.71 0.34 M293.7 -1.7 C291.43 10.76, 293.79 18.19, 293.38 32.47 M292.6 0.83 C292.23 9.34, 293.58 17.53, 293.18 32.42 M293.68 32.3 C201.32 32.29, 113.42 32.48, -0.09 30.94 M292.57 32.33 C212.45 31.1, 132.48 31.8, -0.38 32.12 M0.3 30.14 C-0.72 18.5, 0.97 8.94, -0.56 -0.76 M-0.27 31.01 C-1.06 21.74, -0.52 13.19, 0.41 0.5" stroke="#000000" stroke-width="1" fill="none"></path></g><g transform="translate(910.8307941194939 555.0285151096286) rotate(0 141.5 10)"><text x="141.5" y="14" font-family="Virgil, Segoe UI Emoji" font-size="16px" fill="#000000" text-anchor="middle" style="white-space: pre;" direction="ltr">Sub-conn for 10.0.0.1 is "shutdown"</text></g><g stroke-linecap="round" transform="translate(598.6398975937673 592.4950760193469) rotate(0 133.5 15)"><path d="M0.68 1.49 C86.03 -2, 171.74 -0.83, 265.55 1.13 M-0.13 -0.45 C70.55 -0.88, 140.45 -0.36, 267.26 0.55 M266.12 -0.96 C267.21 9.69, 268.88 23.34, 268.98 30.12 M266.95 -0.02 C266.46 9.8, 266.55 21.23, 267.16 29.56 M267.61 30.95 C168.77 31.36, 66.82 29.97, 1.18 30.06 M267.2 30.61 C206.37 32.84, 145.72 32.11, -0.22 29.62 M-1.25 29.23 C0.55 19.28, 1.19 7.95, -0.02 1.07 M-0.97 30.85 C-0.56 22.22, 0.28 15.99, 0 -0.72" stroke="#000000" stroke-width="1" fill="none"></path></g><g transform="translate(603.6398975937673 597.4950760193469) rotate(0 128.5 10)"><text x="128.5" y="14" font-family="Virgil, Segoe UI Emoji" font-size="16px" fill="#000000" text-anchor="middle" style="white-space: pre;" direction="ltr">10.0.0.2 is "ready"</text></g><g stroke-linecap="round"><g transform="translate(906.3600324610729 573.3889316454097) rotate(0 -19.353124666349004 17.123818381479396)"><path d="M0.04 -0.46 C-6.56 5.19, -32.33 28.79, -38.74 34.66 M-1.4 -1.74 C-7.67 4.01, -30.01 29.71, -36.34 35.99" stroke="#000000" stroke-width="1" fill="none"></path></g><g transform="translate(906.3600324610729 573.3889316454097) rotate(0 -19.353124666349004 17.123818381479396)"><path d="M-35.83 37.04 L-30.79 20.47 L-22.77 30.64 L-37.37 37.62" stroke="none" stroke-width="0" fill="#000000" fill-rule="evenodd"></path><path d="M-36.92 35.24 C-35.23 30.35, -33.4 24.52, -32.48 21.25 M-36.31 36.51 C-35.36 31.1, -32.7 26.53, -31.24 21.38 M-31.43 21.14 C-29.29 24.97, -24.15 27.72, -23.17 29.38 M-32.34 21.22 C-29.57 22.81, -27.97 25.52, -21.95 30.19 M-20.97 29.37 C-28.42 33.43, -34.25 33.17, -35.86 35.22 M-22.62 30.29 C-26.14 31.74, -31.33 34.47, -36.47 35.6 M-36.34 35.99 C-36.34 35.99, -36.34 35.99, -36.34 35.99 M-36.34 35.99 C-36.34 35.99, -36.34 35.99, -36.34 35.99" stroke="#000000" stroke-width="1" fill="none"></path></g></g><g stroke-linecap="round"><g transform="translate(313.81682398902467 448.04936679932143) rotate(0 -19.221357537073118 10.732322578402545)"><path d="M-0.78 0 C-7.31 3.44, -32.99 17.92, -39.45 21.59 M1 -1.05 C-5.1 2.41, -30.13 18.5, -37.07 22.51" stroke="#000000" stroke-width="1" fill="none"></path></g><g transform="translate(313.81682398902467 448.04936679932143) rotate(0 -19.221357537073118 10.732322578402545)"><path d="M-35.61 21.32 L-27.23 8.91 L-22.89 21.63 L-37.81 21.06" stroke="none" stroke-width="0" fill="#000000" fill-rule="evenodd"></path><path d="M-37.07 21.73 C-36.36 18.27, -33.49 16.65, -28.88 9.94 M-36.51 22.6 C-35.14 19.38, -33.33 16.54, -28.16 10.25 M-29.27 10.45 C-27.39 13.28, -25.15 16.61, -22.6 21.79 M-28.57 9.72 C-27.38 12.36, -24.61 15.82, -22.16 20.92 M-23.12 19.72 C-28.37 20.38, -33.89 21.67, -38.42 23.15 M-21.75 20.67 C-26.82 21.6, -30.56 21.62, -37.62 22.21 M-37.07 22.51 C-37.07 22.51, -37.07 22.51, -37.07 22.51 M-37.07 22.51 C-37.07 22.51, -37.07 22.51, -37.07 22.51" stroke="#000000" stroke-width="1" fill="none"></path></g></g><g stroke-linecap="round"><g transform="translate(594.3217157755871 607.7135343367381) rotate(0 -158.48034406051056 -0.654612885122333)"><path d="M0.35 0.79 C-52.48 0.68, -263.39 -0.03, -316.24 -0.09 M-0.93 0.16 C-53.99 -0.39, -265.09 -1.82, -317.31 -2.1" stroke="#000000" stroke-width="1" fill="none"></path></g><g transform="translate(594.3217157755871 607.7135343367381) rotate(0 -158.48034406051056 -0.654612885122333)"><path d="M-316.66 -2.5 L-304.05 -8.59 L-302.47 2.57 L-317.15 -0.93" stroke="none" stroke-width="0" fill="#000000" fill-rule="evenodd"></path><path d="M-316.32 -2.39 C-312.18 -5.33, -306.62 -7.61, -302.44 -9.07 M-317.25 -1.8 C-313.63 -3.26, -309.76 -5.74, -302.96 -7.71 M-303.86 -7.38 C-302.81 -5.04, -303.54 -2.85, -303.77 4.66 M-303.43 -8.77 C-303.61 -4.13, -303.45 -0.87, -304.14 4.61 M-304.31 4.74 C-309.14 1.99, -312.91 -0.19, -317.27 -1.08 M-304.49 5.03 C-309.31 1.1, -313.97 -1.06, -317.38 -1.98 M-317.31 -2.1 C-317.31 -2.1, -317.31 -2.1, -317.31 -2.1 M-317.31 -2.1 C-317.31 -2.1, -317.31 -2.1, -317.31 -2.1" stroke="#000000" stroke-width="1" fill="none"></path></g></g><g stroke-linecap="round" transform="translate(10 589.0716529496749) rotate(0 131.5 15)"><path d="M1.16 -0.85 C77.36 -1.82, 154.23 0.52, 261.7 -0.51 M0.12 0.47 C62.5 1.83, 125.03 2.3, 262.43 -0.46 M261.78 0.43 C263.1 11.17, 264.1 22.28, 262.13 30.74 M263.82 -0.18 C263.26 11.93, 262.96 23.6, 263.09 30.41 M264.41 29.15 C160.72 29.12, 58.19 28.41, 0.3 30.7 M263.74 30.73 C172.61 29.46, 83.81 30.3, 0.5 29.5 M1.84 28.76 C0.34 18.72, 1.41 7.68, -0.14 1.05 M-0.51 30.18 C-0.16 19.87, -0.01 8.41, 0.62 0.27" stroke="#2b8a3e" stroke-width="1" fill="none"></path></g><g transform="translate(15 594.0716529496749) rotate(0 126.5 10)"><text x="126.5" y="14" font-family="Virgil, Segoe UI Emoji" font-size="16px" fill="#2b8a3e" text-anchor="middle" style="white-space: pre;" direction="ltr">Connected to 10.0.0.2</text></g><g stroke-linecap="round" transform="translate(10 399.5335411823826) rotate(0 131.5 16)"><path d="M-1.52 1.33 C76.13 0.75, 152.34 0.31, 263.31 -0.79 M-0.31 -0.56 C97.28 -1.52, 194.24 -2.08, 263.49 -0.08 M261.19 1.39 C262.27 8.27, 264 15.35, 261.58 30.12 M262.22 -0.42 C262.59 11.44, 263.51 24.58, 262.84 31.58 M262.63 33.07 C157.3 32.47, 53.71 33.3, -0.18 33.21 M263.44 32.58 C205.3 32.17, 148.73 30.85, 0.38 32.17 M-1.62 32.31 C1.51 23.34, 0.51 19.3, -0.95 0.4 M0.08 31.95 C-0.22 22.56, 0.62 12.94, -0.53 0.92" stroke="#000000" stroke-width="1" fill="none"></path></g><g transform="translate(15 405.5335411823826) rotate(0 126.5 10)"><text x="126.5" y="14" font-family="Virgil, Segoe UI Emoji" font-size="16px" fill="#000000" text-anchor="middle" style="white-space: pre;" direction="ltr">Try address 10.0.0.1</text></g><g stroke-linecap="round"><g transform="translate(132.68894714296493 490.7814914870887) rotate(0 -0.34630900905222006 46.6867851538027)"><path d="M-1.14 1.16 C-1.24 16.63, 0.02 77.4, 0.05 92.64 M0.46 0.73 C0.13 15.83, -1.12 75.12, -0.99 90.69" stroke="#000000" stroke-width="1" fill="none"></path></g><g transform="translate(132.68894714296493 490.7814914870887) rotate(0 -0.34630900905222006 46.6867851538027)"><path d="M0.86 89.15 L-9.07 77.9 L3.94 78.23 L0.8 90.84" stroke="none" stroke-width="0" fill="#000000" fill-rule="evenodd"></path><path d="M0.47 90.49 C-2.77 84.3, -4.97 82.01, -7.45 77.28 M-0.54 91.38 C-2.86 86.7, -4.1 83.23, -7.8 77.19 M-6.1 75.92 C-3.21 76.39, 1.18 77.52, 5.82 76.08 M-7.48 77.31 C-3.02 77.11, -0.38 76.62, 5.27 77.7 M4.65 76.32 C2.32 81.79, -0.42 85.89, -0.17 91.09 M5.69 76.43 C3.54 82.43, 0.75 86.3, -0.32 90.6 M-0.99 90.69 C-0.99 90.69, -0.99 90.69, -0.99 90.69 M-0.99 90.69 C-0.99 90.69, -0.99 90.69, -0.99 90.69" stroke="#000000" stroke-width="1" fill="none"></path></g></g><g stroke-linecap="round"><g transform="translate(135.24721995350956 366.98405792548783) rotate(0 0.7724860103799074 15.031119413354645)"><path d="M-0.48 -0.76 C-0.24 4.34, 1.76 24.47, 2.03 29.72 M1.46 1.45 C1.47 6.77, 0.64 25.7, 0.97 30.82" stroke="#000000" stroke-width="1" fill="none"></path></g><g transform="translate(135.24721995350956 366.98405792548783) rotate(0 0.7724860103799074 15.031119413354645)"><path d="M0.85 32.63 L-5.68 16.3 L8.28 18.75 L-0.52 30.39" stroke="none" stroke-width="0" fill="#000000" fill-rule="evenodd"></path><path d="M0.02 30.56 C-2.19 24.71, -3.15 22.15, -4.85 16.23 M0.66 30.15 C-0.29 27.3, -0.93 24.8, -4.99 16.92 M-4.9 18.05 C-2.75 18.16, 1.83 16.05, 6.16 17.23 M-5.09 17.81 C-2.13 16.64, 0.36 17.44, 7.08 17.34 M6.96 15.77 C3.57 21.89, 3.06 27.43, 2.35 31.34 M6.56 16.81 C4.61 22.07, 3.49 27.33, 0.54 31.18 M0.97 30.82 C0.97 30.82, 0.97 30.82, 0.97 30.82 M0.97 30.82 C0.97 30.82, 0.97 30.82, 0.97 30.82" stroke="#000000" stroke-width="1" fill="none"></path></g></g></svg>