<svg version="1.1" xmlns="http://www.w3.org/2000/svg" viewBox="0 0 1246.697618898032 695.1219399686793" width="1246.697618898032" height="695.1219399686793">
  <!-- svg-source:excalidraw -->
  
  <defs>
    <style>
      @font-face {
        font-family: "Virgil";
        src: url("https://excalidraw.com/Virgil.woff2");
      }
      @font-face {
        font-family: "Cascadia";
        src: url("https://excalidraw.com/Cascadia.woff2");
      }
    </style>
  </defs>
  <rect x="0" y="0" width="1246.697618898032" height="695.1219399686793" fill="#ffffff"></rect><g stroke-linecap="round" transform="translate(22.90342087076624 51.98540082930094) rotate(0 131.5 16)"><path d="M-0.11 -1.07 C59.51 -0.12, 120.14 1.43, 262.47 -1.57 M-0.55 0.55 C64.08 -0.88, 128.34 -0.7, 263.69 0.67 M264.68 -1.95 C262.99 10.2, 261.47 22.23, 264.81 33.48 M263.73 0.67 C262.58 10.51, 262.13 21.92, 263.49 32 M263.15 31.59 C178 33.01, 94.65 32.88, -0.6 30.83 M262.22 31.79 C163.38 31.72, 62.8 31.62, 0.34 32.46 M0.14 33.21 C1.91 19.62, -0.12 9.63, -0.79 -0.15 M0.41 31.33 C-1.17 20.87, 0.43 10.96, -0.64 -0.05" stroke="#000000" stroke-width="1" fill="none"></path></g><g transform="translate(27.90342087076624 57.98540082930094) rotate(0 126.5 10)"><text x="126.5" y="14" font-family="Virgil, Segoe UI Emoji" font-size="16px" fill="#000000" text-anchor="middle" style="white-space: pre;" direction="ltr">Init</text></g><g stroke-linecap="round"><g transform="translate(292.94543569768075 46.95610039580288) rotate(0 -0.4081656959610882 318.73555277542755)"><path d="M0.7 -0.69 C0.47 105.36, -0.33 530.6, -0.41 636.74 M-0.38 1.55 C-0.89 107.75, -1.52 532.25, -1.52 638.17" stroke="#000000" stroke-width="1" fill="none"></path></g></g><g stroke-linecap="round"><g transform="translate(597.8584218131546 53.44468178676789) rotate(0 3.3101213139364063 308.06099567150113)"><path d="M0.69 -0.77 C1.6 101.91, 4.08 514.23, 4.84 616.89 M-0.41 1.44 C0.92 103.7, 6.27 512.7, 7.03 615.12" stroke="#000000" stroke-width="1" fill="none"></path></g></g><g transform="translate(51.4017088647347 10) rotate(0 32 10)"><text x="32" y="14" font-family="Virgil, Segoe UI Emoji" font-size="16px" fill="#000000" text-anchor="middle" style="white-space: pre;" direction="ltr">Watcher</text></g><g transform="translate(311.0061883520748 11.94850631400368) rotate(0 63.5 10)"><text x="63.5" y="14" font-family="Virgil, Segoe UI Emoji" font-size="16px" fill="#000000" text-anchor="middle" style="white-space: pre;" direction="ltr">watcherResolver</text></g><g transform="translate(622.7420368159819 13.359026512534001) rotate(0 65 10)"><text x="65" y="14" font-family="Virgil, Segoe UI Emoji" font-size="16px" fill="#000000" text-anchor="middle" style="white-space: pre;" direction="ltr">watcherBalancer</text></g><g stroke-linecap="round"><g transform="translate(910.574464409121 48.965272978575285) rotate(0 2.271324733604388 308.2609638821152)"><path d="M1.19 1.13 C1.73 103.84, 3.52 513.6, 4.18 615.84 M0.36 0.68 C0.66 103.09, 2.49 511.64, 3.24 614.13" stroke="#000000" stroke-width="1" fill="none"></path></g></g><g transform="translate(991.5054030282076 21.14178237105034) rotate(0 20.5 10)"><text x="20.5" y="14" font-family="Virgil, Segoe UI Emoji" font-size="16px" fill="#000000" text-anchor="middle" style="white-space: pre;" direction="ltr">gRPC</text></g><g stroke-linecap="round" transform="translate(334.40304391531026 57.11258402965268) rotate(0 123.5 16)"><path d="M-1.23 -0.73 C76.8 -0.28, 157.19 -1.94, 245.99 -0.49 M0.69 0.72 C91.23 -1.35, 181.04 -1.31, 246.22 -0.75 M247.83 0.89 C248.99 7.47, 247.5 16.3, 245.94 30.14 M246.61 0 C247.69 10.29, 247.18 22.03, 247.89 31.97 M248.33 33 C160.79 32.85, 71.71 31.4, -0.37 32.61 M246.51 31.59 C169.14 32.72, 92.64 33.46, -0.52 32.22 M0.05 30.02 C-1.4 20.98, 1.46 13.96, -1.78 -0.54 M-0.29 31.13 C-0.94 18.91, -0.57 7.02, 0.88 0.45" stroke="#000000" stroke-width="1" fill="none"></path></g><g transform="translate(339.40304391531026 63.11258402965268) rotate(0 118.5 10)"><text x="118.5" y="14" font-family="Virgil, Segoe UI Emoji" font-size="16px" fill="#000000" text-anchor="middle" style="white-space: pre;" direction="ltr">No Addresses</text></g><g stroke-linecap="round" transform="translate(614.7799522523073 57.60977257020659) rotate(0 131.5 16)"><path d="M-0.57 1.41 C73.56 -0.34, 145.74 -1.78, 262.97 -0.67 M0.37 0.43 C67.52 -0.53, 136.15 0.27, 262.26 0.49 M263.35 0.79 C263.87 8.62, 262.12 20.02, 261.7 33.66 M263.85 -0.07 C263.58 8.14, 262.43 15.42, 263.44 31.27 M262.8 30.78 C201.13 32.73, 141.44 34.19, 0.09 31.43 M263.08 31.57 C200.01 32.9, 136.54 32.83, -0.49 31.44 M1.26 33.62 C-1.32 24.75, -0.15 18.54, 1.4 -1.82 M-0.34 32.21 C-0.31 23.95, -0.37 15.47, 0.74 -0.04" stroke="#000000" stroke-width="1" fill="none"></path></g><g transform="translate(619.7799522523073 63.60977257020659) rotate(0 126.5 10)"><text x="126.5" y="14" font-family="Virgil, Segoe UI Emoji" font-size="16px" fill="#000000" text-anchor="middle" style="white-space: pre;" direction="ltr">No sub-connections</text></g><g stroke-linecap="round" transform="translate(923.7852610416526 59.20543287051487) rotate(0 131.5 16)"><path d="M0.37 -0.04 C81.15 1.16, 159.57 -1.04, 263.27 -0.82 M0.63 0.09 C57.81 -1.97, 115.27 -1.34, 262.37 0.74 M262.38 -1.11 C263.6 10.58, 261.76 20.25, 264.74 32.89 M262.04 -0.63 C262.34 10.3, 262.28 21.03, 263.16 31.92 M261.53 32.87 C172.28 30.47, 80.9 30.21, -0.21 31.1 M262.99 31.77 C175.37 30.12, 86.61 30.98, 0.33 32.72 M0.09 32.59 C0.11 19.28, 1.65 6.19, -1.4 -1.22 M0.42 31.48 C0.11 23.68, -0.22 14.59, 0.44 0.2" stroke="#000000" stroke-width="1" fill="none"></path></g><g transform="translate(928.7852610416526 65.20543287051487) rotate(0 126.5 10)"><text x="126.5" y="14" font-family="Virgil, Segoe UI Emoji" font-size="16px" fill="#000000" text-anchor="middle" style="white-space: pre;" direction="ltr">No sub-connections</text></g><g stroke-linecap="round" transform="translate(21.594285983538157 108.39183734372045) rotate(0 131.5 16)"><path d="M-0.01 1.14 C90.58 -2.15, 185.51 -1.46, 264.05 0.58 M-0.76 0.64 C70.94 0.17, 141.32 0.31, 262.73 -0.23 M261.89 -0.55 C262.39 14.44, 261.3 24.03, 263.14 30.4 M262.76 -0.71 C262.59 12.02, 263.55 23.82, 262.34 31.45 M263.8 30.47 C161.44 34.74, 59.34 34.34, 0.3 31.43 M263.67 31.26 C159.96 32.43, 58.36 32.33, -0.5 32.62 M1.53 32.13 C0.9 22.5, 0.74 11.31, -1.96 0.65 M-0.18 32.81 C1.01 24.84, -0.6 15.86, 0.71 -0.7" stroke="#000000" stroke-width="1" fill="none"></path></g><g transform="translate(26.594285983538157 114.39183734372045) rotate(0 126.5 10)"><text x="126.5" y="14" font-family="Virgil, Segoe UI Emoji" font-size="16px" fill="#000000" text-anchor="middle" style="white-space: pre;" direction="ltr">Discover Addresses</text></g><g stroke-linecap="round"><g transform="translate(147.7237825190905 141.65461456304683) rotate(0 0.2857922843495544 12.970317865937432)"><path d="M-0.8 -0.3 C-0.75 4.25, 0.91 21.63, 1.37 26.46 M0.98 -1.51 C0.74 3.23, 0.12 22.71, 0.16 27.45" stroke="#000000" stroke-width="1" fill="none"></path></g><g transform="translate(147.7237825190905 141.65461456304683) rotate(0 0.2857922843495544 12.970317865937432)"><path d="M1.43 28.46 L-7.41 15.32 L7.94 15.28 L1.43 27.82" stroke="none" stroke-width="0" fill="#000000" fill-rule="evenodd"></path><path d="M-0.19 26.88 C-3.17 22.62, -2.83 16.43, -5.09 15.25 M0 26.82 C-1.56 23.36, -2.93 19.19, -5.54 15.37 M-5.15 15.32 C-2.93 15.4, 1.34 14.19, 7.32 14.74 M-5.69 15.33 C-2.07 15.24, 1.52 15.27, 6.47 14.81 M4.89 14.35 C5.18 19.52, 2.7 24.64, -0.27 27.14 M6.33 15.05 C4.12 18.84, 2.31 22.14, 0.84 27.06 M0.16 27.45 C0.16 27.45, 0.16 27.45, 0.16 27.45 M0.16 27.45 C0.16 27.45, 0.16 27.45, 0.16 27.45" stroke="#000000" stroke-width="1" fill="none"></path></g></g><g stroke-linecap="round" transform="translate(21.802004146508807 172.09774140855598) rotate(0 131.5 16)"><path d="M-1.52 1.33 C76.13 0.75, 152.34 0.31, 263.31 -0.79 M-0.31 -0.56 C97.28 -1.52, 194.24 -2.08, 263.49 -0.08 M261.19 1.39 C262.27 8.27, 264 15.35, 261.58 30.12 M262.22 -0.42 C262.59 11.44, 263.51 24.58, 262.84 31.58 M262.63 33.07 C157.3 32.47, 53.71 33.3, -0.18 33.21 M263.44 32.58 C205.3 32.17, 148.73 30.85, 0.38 32.17 M-1.62 32.31 C1.51 23.34, 0.51 19.3, -0.95 0.4 M0.08 31.95 C-0.22 22.56, 0.62 12.94, -0.53 0.92" stroke="#000000" stroke-width="1" fill="none"></path></g><g transform="translate(26.802004146508807 178.09774140855598) rotate(0 126.5 10)"><text x="126.5" y="14" font-family="Virgil, Segoe UI Emoji" font-size="16px" fill="#000000" text-anchor="middle" style="white-space: pre;" direction="ltr">Try address 10.0.0.1</text></g><g stroke-linecap="round"><g transform="translate(287.03695243293214 189.0923373109922) rotate(0 23.711187333046837 -0.009467394733292167)"><path d="M-0.6 0.29 C7.46 0.23, 39.75 0.11, 48.02 -0.31" stroke="#000000" stroke-width="1.5" fill="none" stroke-dasharray="1.5 7"></path></g><g transform="translate(287.03695243293214 189.0923373109922) rotate(0 23.711187333046837 -0.009467394733292167)"><path d="M47.27 1.61 L34.24 5.88 L35.35 -7.76 L49.05 0.08" stroke="none" stroke-width="0" fill="#000000" fill-rule="evenodd"></path><path d="M48.38 -0.05 C45.22 2.92, 39.2 4.15, 33.76 6.8 M34.5 5.94 C35.78 0.94, 35.43 -2.07, 35.11 -5.21 M34.18 -7.25 C39.72 -4.17, 43.88 -1.48, 46.59 -0.26 M48.02 -0.31 C48.02 -0.31, 48.02 -0.31, 48.02 -0.31" stroke="#000000" stroke-width="1.5" fill="none"></path></g></g><g stroke-linecap="round" transform="translate(338.85765219576524 169.51477194194786) rotate(0 125 15)"><path d="M0.93 -1.35 C76.65 -1.83, 151.72 -2.75, 249.39 1.53 M-0.32 -0.16 C75.78 1.41, 151.54 1.06, 249.28 -0.77 M248.37 0.72 C248.45 9.87, 250.32 20.41, 250.5 31.16 M250.58 0.02 C250.22 9.8, 250.65 20.43, 250.95 29.53 M249.13 31.03 C158.56 28.77, 66.98 29.63, 1.43 29.82 M249.25 30.17 C162.79 28.71, 75.43 28.05, 0.3 29.47 M-1.54 29.98 C-0.76 22.53, -1.43 14.93, -1.99 -0.94 M0.16 29.34 C-0.06 21.01, -0.29 13.58, 0.8 0.69" stroke="#000000" stroke-width="1" fill="none"></path></g><g transform="translate(343.85765219576524 174.51477194194786) rotate(0 120 10)"><text x="120" y="14" font-family="Virgil, Segoe UI Emoji" font-size="16px" fill="#000000" text-anchor="middle" style="white-space: pre;" direction="ltr">Addr = 10.0.0.1</text></g><g stroke-linecap="round"><g transform="translate(592.647247243513 187.08971438410617) rotate(0 169.47137780893695 -2.010034819863904)"><path d="M0.54 0.32 C57.04 -0.31, 283.26 -3.67, 339.58 -4.34 M-0.64 -0.56 C55.67 -0.92, 281.81 -1.92, 338.74 -2.78" stroke="#000000" stroke-width="1" fill="none"></path></g><g transform="translate(592.647247243513 187.08971438410617) rotate(0 169.47137780893695 -2.010034819863904)"><path d="M338.48 -3.04 L324.08 4.39 L325.32 -10.23 L338.72 -3.34" stroke="none" stroke-width="0" fill="#000000" fill-rule="evenodd"></path><path d="M339.14 -2.52 C334.08 -1.58, 330.16 1.52, 324.77 2.49 M338.97 -2.66 C333.38 -0.93, 328.79 2.35, 325.93 4.12 M324.86 2.79 C325.54 -1.3, 324.36 -4.68, 323.87 -9.83 M325.22 3.94 C325.16 -0.55, 325.08 -4.49, 325.59 -8.9 M323.9 -8.75 C329.29 -6.23, 331.82 -6.34, 337.41 -4.25 M325.13 -8.97 C328.5 -7.54, 332.57 -5.28, 339.04 -3.24 M338.74 -2.78 C338.74 -2.78, 338.74 -2.78, 338.74 -2.78 M338.74 -2.78 C338.74 -2.78, 338.74 -2.78, 338.74 -2.78" stroke="#000000" stroke-width="1" fill="none"></path></g></g><g stroke-linecap="round" transform="translate(933.4345354023985 167.38501287930876) rotate(0 131.5 15)"><path d="M-1.26 1.45 C54.83 -0.91, 112.13 0.9, 264.57 0.19 M-0.34 0.68 C91.54 -1.37, 183.98 -1.1, 263.14 -0.54 M262.03 -0.67 C263.86 8.5, 264.02 14.64, 263.84 31.91 M262.26 -0.33 C263.43 7.44, 263.75 13.37, 262.66 30.34 M262.96 30.12 C159.86 31.92, 54.61 31.85, 0.2 31.57 M263.38 30.01 C174.65 30.15, 84.67 30.05, -0.67 29.26 M0.61 31.97 C-0.6 23.3, -0.23 14.86, -1.93 0.42 M0.59 29.8 C-0.52 22.64, -0.62 16.77, 0.97 0.12" stroke="#000000" stroke-width="1" fill="none"></path></g><g transform="translate(938.4345354023985 172.38501287930876) rotate(0 126.5 10)"><text x="126.5" y="14" font-family="Virgil, Segoe UI Emoji" font-size="16px" fill="#000000" text-anchor="middle" style="white-space: pre;" direction="ltr">Create sub-conn for 10.0.0.1</text></g><g stroke-linecap="round"><g transform="translate(931.3153389457807 195.35200686606686) rotate(0 -19.26948297367244 14.364552226519208)"><path d="M-1.07 -0.4 C-7.62 4.63, -32.85 25.14, -39.1 30.39 M0.56 -1.66 C-5.61 2.98, -30.11 23.26, -36.79 28.4" stroke="#000000" stroke-width="1" fill="none"></path></g><g transform="translate(931.3153389457807 195.35200686606686) rotate(0 -19.26948297367244 14.364552226519208)"><path d="M-38.25 27.05 L-29.32 16.15 L-22.47 23.32 L-37.71 27.75" stroke="none" stroke-width="0" fill="#000000" fill-rule="evenodd"></path><path d="M-37.3 27.44 C-34.39 23.88, -31.45 18.98, -30.8 15.6 M-37.24 27.92 C-34.09 23.29, -32.32 18.52, -29.6 14.69 M-29.32 16.11 C-28.04 16.73, -25.87 19.28, -21.62 24.36 M-30.71 15.04 C-27.66 17.68, -25 20.43, -22.53 24.39 M-20.88 24.32 C-25.01 26.48, -29.01 26.94, -36.71 28.37 M-22.3 25.21 C-25.59 25.65, -30.48 27.45, -36.76 27.71 M-36.79 28.4 C-36.79 28.4, -36.79 28.4, -36.79 28.4 M-36.79 28.4 C-36.79 28.4, -36.79 28.4, -36.79 28.4" stroke="#000000" stroke-width="1" fill="none"></path></g></g><g stroke-linecap="round" transform="translate(683.9794716340998 209.51763837406315) rotate(0 104 15)"><path d="M-1.27 -1.29 C64.51 -1.88, 131.33 0.11, 206.34 0.15 M-0.52 -0.5 C57.29 1.65, 115.5 1.38, 208.17 0.59 M209.21 1.55 C209.53 6.66, 206.89 17.33, 206.59 30.35 M208.16 -0.95 C208.59 6.97, 208.4 13.98, 208.65 30.98 M206.52 31.3 C134.16 30.52, 60.98 31, 0.08 31.28 M208.08 29.88 C161.95 30.39, 114.8 30.62, -0.45 30.29 M-1.43 30.02 C0.55 22.73, -2.02 11.61, -1.8 -1.03 M0.83 30.88 C-0.13 20.85, 0.34 11.63, -0.98 0.67" stroke="#000000" stroke-width="1" fill="none"></path></g><g transform="translate(688.9794716340998 214.51763837406315) rotate(0 99 10)"><text x="99" y="14" font-family="Virgil, Segoe UI Emoji" font-size="16px" fill="#000000" text-anchor="middle" style="white-space: pre;" direction="ltr">10.0.0.1 is "connecting"</text></g><g stroke-linecap="round"><g transform="translate(145.13002261031124 209.10647420996474) rotate(0 -0.32802626478678576 12.484366736392076)"><path d="M1 -0.76 C0.58 3.6, -1.5 21.42, -1.66 25.73 M0.07 1.46 C-0.03 5.52, 0.77 19.84, 0.73 24.02" stroke="#000000" stroke-width="1" fill="none"></path></g><g transform="translate(145.13002261031124 209.10647420996474) rotate(0 -0.32802626478678576 12.484366736392076)"><path d="M0.11 23.78 L-4.79 13.16 L6.46 11.38 L-0.42 22.53" stroke="none" stroke-width="0" fill="#000000" fill-rule="evenodd"></path><path d="M-0.06 23.38 C-0.47 21.02, -3.19 16.69, -5.33 11.6 M0.7 23.44 C-0.31 22.22, -1.67 19.63, -5.1 12.41 M-5.6 12.86 C-1.02 13.54, 1.42 13.33, 5 12.07 M-4.47 12.53 C-1.81 12.94, 1.06 12.76, 5.34 12.25 M4.5 13.21 C4.49 15.55, 2.59 17.06, 1.49 24.36 M5.16 12.54 C4.11 16.95, 2.44 21.2, 0.56 24.55 M0.73 24.02 C0.73 24.02, 0.73 24.02, 0.73 24.02 M0.73 24.02 C0.73 24.02, 0.73 24.02, 0.73 24.02" stroke="#000000" stroke-width="1" fill="none"></path></g></g><g stroke-linecap="round" transform="translate(22.934441163534757 235.88897091160243) rotate(0 131.5 15)"><path d="M-0.35 1.56 C71.58 -2.52, 141.85 -2.34, 262.38 0.13 M-0.15 -0.73 C78.22 0.92, 156.86 1.12, 262.89 -0.26 M264.42 -0.69 C261.66 6.37, 262.07 16.51, 261.57 30.69 M262.56 -0.99 C262.74 9.54, 262.74 18.72, 263.66 29.66 M261.79 30.26 C200.59 31.06, 139.86 31.26, 1.17 31.27 M263.57 29.69 C180.67 29.83, 98.99 29.7, -0.68 30.16 M-1.55 31.56 C-0.52 21.33, -1.49 13.74, -1.06 -0.61 M0.92 30.32 C0.06 19.87, -0.07 11.37, -0.84 0.87" stroke="#000000" stroke-width="1" fill="none"></path></g><g transform="translate(27.934441163534757 240.88897091160243) rotate(0 126.5 10)"><text x="126.5" y="14" font-family="Virgil, Segoe UI Emoji" font-size="16px" fill="#000000" text-anchor="middle" style="white-space: pre;" direction="ltr">wait for connection to 10.0.0.1</text></g><g stroke-linecap="round" transform="translate(934.3692278695721 242.42985487214764) rotate(0 131.5 16)"><path d="M-0.45 1.01 C92.51 0.52, 185.53 1.71, 262.73 -1.32 M-0.58 0.34 C60.58 -1.48, 121.9 -1.17, 263.37 0.4 M262.2 1.81 C264.32 11.89, 264.22 19.91, 262.21 30.02 M262.11 0.85 C263.64 11.74, 263.32 21.56, 263.09 32.9 M262.65 33.5 C179.04 28.8, 93.68 31.54, 0.47 31.45 M262.29 31.96 C187.46 31.31, 111.78 32.31, -0.12 32.52 M0.95 30.19 C-1.37 22.1, -0.58 13.21, -1.33 1.21 M0.09 32.13 C0.07 23.33, -0.51 13.6, -0.48 0.85" stroke="#000000" stroke-width="1" fill="none"></path></g><g transform="translate(939.3692278695721 248.42985487214764) rotate(0 126.5 10)"><text x="126.5" y="14" font-family="Virgil, Segoe UI Emoji" font-size="16px" fill="#000000" text-anchor="middle" style="white-space: pre;" direction="ltr">Sub-conn for 10.0.0.1 is "ready"</text></g><g stroke-linecap="round"><g transform="translate(931.1362065715898 264.05791711493885) rotate(0 -20.31295718249271 14.307839168569444)"><path d="M0 -0.75 C-6.95 3.86, -34.15 23.18, -40.63 28.09 M-1.46 1.47 C-8.13 6.21, -32.1 24.58, -38.38 29.37" stroke="#000000" stroke-width="1" fill="none"></path></g><g transform="translate(931.1362065715898 264.05791711493885) rotate(0 -20.31295718249271 14.307839168569444)"><path d="M-36.83 29.34 L-29.56 15.99 L-23.72 25.6 L-39.34 30.35" stroke="none" stroke-width="0" fill="#000000" fill-rule="evenodd"></path><path d="M-39.32 28.26 C-36.35 25.28, -32.8 17.79, -31.26 17.43 M-37.64 29.39 C-36.52 25.89, -35.32 21.62, -32.09 16.2 M-30.85 15.91 C-28.97 19.19, -25.12 25.08, -22.62 26.71 M-30.88 16.48 C-28.92 20.52, -25.54 23.77, -23.49 26.06 M-23.55 26.97 C-26.77 27.97, -29.63 29.02, -37.45 28.71 M-23.12 26.35 C-26.68 26.89, -30.81 27.19, -37.85 29.33 M-38.38 29.37 C-38.38 29.37, -38.38 29.37, -38.38 29.37 M-38.38 29.37 C-38.38 29.37, -38.38 29.37, -38.38 29.37" stroke="#000000" stroke-width="1" fill="none"></path></g></g><g stroke-linecap="round" transform="translate(687.5420776528231 278.1222356599833) rotate(0 102.5 16)"><path d="M-1.38 -1.71 C69.92 -1.44, 136.3 -0.27, 206.63 1.66 M0.56 0.59 C78.21 -2.4, 157.26 -1.22, 205.22 -0.39 M205.37 0.53 C206.38 7.51, 205.75 19.1, 204.59 30.94 M205.93 0.2 C204.55 11.33, 204.37 24.71, 205.69 32.29 M204.14 31.14 C152.92 30.34, 103.12 31.73, -1.66 32.51 M204.84 32.35 C147.27 31.54, 88.85 31.21, -0.55 32.37 M1.1 30.67 C0.8 18.14, 0.41 6.34, -1.51 0.79 M0.7 31.16 C-0.26 22.26, 0.05 10.15, 0.44 -0.49" stroke="#000000" stroke-width="1" fill="none"></path></g><g transform="translate(692.5420776528231 284.1222356599833) rotate(0 97.5 10)"><text x="97.5" y="14" font-family="Virgil, Segoe UI Emoji" font-size="16px" fill="#000000" text-anchor="middle" style="white-space: pre;" direction="ltr">10.0.0.1 is "ready"</text></g><g transform="translate(296.01382170006855 158.22084877803672) rotate(0 21.5 10)"><text x="21.5" y="14" font-family="Virgil, Segoe UI Emoji" font-size="16px" fill="#000000" text-anchor="middle" style="white-space: pre;" direction="ltr">async</text></g><g stroke-linecap="round"><g transform="translate(683.5993748822011 300.0920658095233) rotate(0 -200.80577764114673 -0.1243900454710456)"><path d="M-1.01 -0.12 C-67.97 -0.37, -334.64 -0.53, -401.73 -0.43 M0.65 -1.23 C-66.39 -0.79, -335.29 1.03, -402.27 0.98" stroke="#000000" stroke-width="1" fill="none"></path></g><g transform="translate(683.5993748822011 300.0920658095233) rotate(0 -200.80577764114673 -0.1243900454710456)"><path d="M-400.41 0.31 L-389.16 -4.15 L-388.59 6.81 L-403.47 1.94" stroke="none" stroke-width="0" fill="#000000" fill-rule="evenodd"></path><path d="M-402.42 1.96 C-398.56 -2.12, -393.39 -2.89, -387.52 -5.21 M-401.63 0.74 C-396.98 -1.98, -392.13 -3.18, -388.76 -4.7 M-389.82 -5.75 C-389.24 -2.54, -387.43 1.79, -389.27 6.59 M-388.94 -5.26 C-388.29 -2.17, -388.14 0.18, -388.73 7.37 M-387.55 8.19 C-391.96 5.82, -397.27 1.89, -402.18 1.52 M-388.52 8 C-392.43 5.8, -396.37 3.83, -402.61 0.35 M-402.27 0.98 C-402.27 0.98, -402.27 0.98, -402.27 0.98 M-402.27 0.98 C-402.27 0.98, -402.27 0.98, -402.27 0.98" stroke="#000000" stroke-width="1" fill="none"></path></g></g><g stroke-linecap="round" transform="translate(20.392426336620247 288.91615882389715) rotate(0 131.5 15)"><path d="M-1.39 0.74 C95.4 0.81, 188.94 3.06, 261.55 -0.32 M0.23 -0.47 C93.92 0.59, 187.56 0.46, 263.26 -0.16 M261.24 0.16 C264.13 9.5, 262.1 18.48, 263.69 28.71 M263.86 0.61 C263.08 10.87, 262.03 23.2, 262.15 30.16 M263.68 30.85 C163.99 29.32, 63.11 27.48, -0.48 30.22 M263.51 29.72 C166.62 27.5, 72.06 28.05, -0.21 29.47 M-1.12 28.39 C1.96 20.69, -0.39 9.8, -1.12 -1.54 M0.59 31 C0.12 20.78, 1.11 13.41, -0.99 0.2" stroke="#2b8a3e" stroke-width="1" fill="none"></path></g><g transform="translate(25.392426336620247 293.91615882389715) rotate(0 126.5 10)"><text x="126.5" y="14" font-family="Virgil, Segoe UI Emoji" font-size="16px" fill="#2b8a3e" text-anchor="middle" style="white-space: pre;" direction="ltr">Connected to 10.0.0.1</text></g><g stroke-linecap="round"><g transform="translate(145.52296795268012 267.33878871646675) rotate(0 0.40573166100170965 11.073735765654874)"><path d="M0.51 0.76 C0.8 4.31, 1.6 17.14, 1.48 20.71 M-0.68 0.11 C-0.46 3.89, 0.43 18.66, 0.91 22.04" stroke="#000000" stroke-width="1" fill="none"></path></g><g transform="translate(145.52296795268012 267.33878871646675) rotate(0 0.40573166100170965 11.073735765654874)"><path d="M0.18 22.85 L-3.62 13.33 L4.32 12.12 L2.15 22.37" stroke="none" stroke-width="0" fill="#000000" fill-rule="evenodd"></path><path d="M1.57 22.66 C-0.86 18.69, -1.03 16.9, -3.86 12.7 M0.74 22.27 C-0.61 19.09, -2.19 16.71, -4.84 12.78 M-4.62 13.25 C-2.42 12.06, -0.4 13.26, 5.2 12.07 M-4.43 12.66 C-1.92 13.01, 0.34 12.31, 4.8 12.09 M3.81 11.87 C4.44 13.78, 1.74 16.09, 1.28 23.02 M4.09 12.11 C3.25 14.35, 2.35 17.07, 0.86 21.87 M0.91 22.04 C0.91 22.04, 0.91 22.04, 0.91 22.04 M0.91 22.04 C0.91 22.04, 0.91 22.04, 0.91 22.04" stroke="#000000" stroke-width="1" fill="none"></path></g></g><g stroke-linecap="round"><g transform="translate(589.4274989005462 439.80449794066) rotate(0 175.4611597982232 -0.8378279560488409)"><path d="M0.08 0.4 C58.74 0.5, 293.73 -0.25, 352.26 -0.57 M-1.34 -0.44 C57.17 -0.54, 292.27 -2.15, 351.45 -2.08" stroke="#000000" stroke-width="1" fill="none"></path></g><g transform="translate(589.4274989005462 439.80449794066) rotate(0 175.4611597982232 -0.8378279560488409)"><path d="M352.36 -2.06 L338.72 6.22 L336.48 -9.46 L351.19 -3.56" stroke="none" stroke-width="0" fill="#000000" fill-rule="evenodd"></path><path d="M351.94 -1.75 C348.45 -0.97, 342.92 2.16, 339.08 4.39 M351.47 -1.91 C348.02 -0.47, 343.61 1.99, 337.47 4.64 M338.89 4.17 C338.77 0.56, 337.5 -2.2, 338.23 -7.57 M337.61 4.87 C338.1 0.98, 337.99 -2.72, 337.34 -8.59 M336.46 -7.74 C340.39 -8.06, 345.24 -4.71, 352.43 -3.46 M337.58 -9.03 C342.88 -6.47, 346.73 -3.43, 351.03 -2.73 M351.45 -2.08 C351.45 -2.08, 351.45 -2.08, 351.45 -2.08 M351.45 -2.08 C351.45 -2.08, 351.45 -2.08, 351.45 -2.08" stroke="#000000" stroke-width="1" fill="none"></path></g></g><g stroke-linecap="round" transform="translate(943.6363636363621 422.59379122949986) rotate(0 131.5 15)"><path d="M1.53 1.24 C76.15 1.31, 154 1.71, 263.5 1.11 M0.46 0.22 C61.1 0.86, 124.33 1.48, 263.61 -0.64 M262.99 -1.52 C264.38 9.56, 262.45 22.8, 262.1 29.79 M263.29 -0.6 C263.65 5.7, 262.52 13.56, 263.42 30.94 M262.39 29.9 C185.47 28.84, 104.74 31.74, 0.85 29.33 M262.89 30.73 C191.85 27.88, 121.96 29.01, 0.67 29.56 M1.97 29.43 C0.67 22.33, -1.21 13, 1.69 -0.41 M0.25 29.06 C-0.4 21.46, 0.16 11.47, 0.46 -0.14" stroke="#000000" stroke-width="1" fill="none"></path></g><g transform="translate(948.6363636363621 427.59379122949986) rotate(0 126.5 10)"><text x="126.5" y="14" font-family="Virgil, Segoe UI Emoji" font-size="16px" fill="#000000" text-anchor="middle" style="white-space: pre;" direction="ltr">Create sub-conn for 10.0.0.2</text></g><g stroke-linecap="round"><g transform="translate(145.13036397213455 320.9872463403922) rotate(0 -0.05984498123302728 16.710904075399412)"><path d="M0.02 0.27 C0.37 5.95, 1.24 27.37, 1.31 32.87 M-1.43 -0.63 C-1.09 5.29, 0.65 28.21, 0.85 34.05" stroke="#000000" stroke-width="1" fill="none"></path></g><g transform="translate(145.13036397213455 320.9872463403922) rotate(0 -0.05984498123302728 16.710904075399412)"><path d="M1.33 33.73 L-5.33 21.38 L5.64 20.53 L-0.75 34.55" stroke="none" stroke-width="0" fill="#000000" fill-rule="evenodd"></path><path d="M1.19 35.2 C-1.53 31.07, -2.71 26.42, -7.7 21.88 M0.13 33.85 C-1.22 29.35, -3.65 24.34, -5.65 21.37 M-5.11 20.8 C-1.83 19.58, -0.61 21.18, 5.71 20.85 M-6.47 20.69 C-2.65 20.54, 2.22 19.88, 6.49 20.57 M6.69 18.88 C5.01 25.47, 3.05 29.36, 2.27 34.33 M7.06 20.32 C4.75 25.12, 2.63 31.35, 0.79 33.97 M0.85 34.05 C0.85 34.05, 0.85 34.05, 0.85 34.05 M0.85 34.05 C0.85 34.05, 0.85 34.05, 0.85 34.05" stroke="#000000" stroke-width="1" fill="none"></path></g></g><g stroke-linecap="round" transform="translate(13.415452032417306 423.7919991204367) rotate(0 131.5 16)"><path d="M-1.02 -0.23 C75.81 -2.4, 149.2 -2.95, 262.25 -1.52 M-0.1 0.64 C53.1 -1.26, 105.53 -2.45, 263.02 -0.36 M264.37 -0.03 C261.5 8.15, 262.18 20, 262.37 32.15 M263.16 -0.46 C263.45 8.49, 262.96 16.75, 263.53 32.67 M262.85 31.39 C166.06 30.64, 66.78 32.6, -0.05 31.65 M262.25 31.42 C180 31.79, 98.16 30.87, -0.57 32.05 M0.96 31.22 C-1.85 18.12, -2.14 7.51, 1.1 1.37 M-0.55 32.63 C-0.25 24.13, 0.1 15.78, 0.57 0.59" stroke="#000000" stroke-width="1" fill="none"></path></g><g transform="translate(18.415452032417306 429.7919991204367) rotate(0 126.5 10)"><text x="126.5" y="14" font-family="Virgil, Segoe UI Emoji" font-size="16px" fill="#000000" text-anchor="middle" style="white-space: pre;" direction="ltr">wait for connection to 10.0.0.2</text></g><g stroke-linecap="round" transform="translate(333.7868945152982 424.85772287491227) rotate(0 125 15)"><path d="M-0.61 -1.11 C95.18 0.72, 192.5 2.89, 249.53 1.63 M0.39 -0.82 C84.91 -2.45, 169.95 -1.23, 250.28 -0.8 M249.09 -0.91 C248.98 7.38, 250.73 12.99, 251.15 30.7 M249.82 -0.58 C249.83 8.59, 249.76 18.7, 249.66 29.61 M248.38 30.9 C189.35 30.34, 131.66 27.79, 1.33 30.94 M250.8 29.59 C168.08 28.95, 84.97 28.99, 0.46 30.73 M-0.83 28.58 C-1.24 20.11, -0.47 5.92, -1.21 1.66 M0.01 29.88 C-1.1 19.91, -0.94 9.25, -0.45 -0.57" stroke="#000000" stroke-width="1" fill="none"></path></g><g transform="translate(338.7868945152982 429.85772287491227) rotate(0 120 10)"><text x="120" y="14" font-family="Virgil, Segoe UI Emoji" font-size="16px" fill="#000000" text-anchor="middle" style="white-space: pre;" direction="ltr">Addr = 10.0.0.2</text></g><g stroke-linecap="round"><g transform="translate(277.85730332503954 441.1060658415522) rotate(0 24.886691286365476 0.029452565119299834)"><path d="M-0.13 -0.83 C8.13 -0.61, 41.57 0.34, 49.91 0.89" stroke="#000000" stroke-width="1.5" fill="none" stroke-dasharray="1.5 7"></path></g><g transform="translate(277.85730332503954 441.1060658415522) rotate(0 24.886691286365476 0.029452565119299834)"><path d="M51.23 2.27 L35.49 8.34 L37.18 -6.71 L48.84 2.64" stroke="none" stroke-width="0" fill="#000000" fill-rule="evenodd"></path><path d="M48.87 1.67 C44.51 3.52, 41.97 3.44, 35.52 6.15 M35.15 7.69 C36.18 4.52, 37.5 1.39, 35.38 -6.94 M35.84 -5.67 C38.81 -3.49, 43.62 -3.68, 48.74 0.63 M49.91 0.89 C49.91 0.89, 49.91 0.89, 49.91 0.89" stroke="#000000" stroke-width="1.5" fill="none"></path></g></g><g transform="translate(294.1622636175148 404.11360495068175) rotate(0 21.5 10)"><text x="21.5" y="14" font-family="Virgil, Segoe UI Emoji" font-size="16px" fill="#000000" text-anchor="middle" style="white-space: pre;" direction="ltr">async</text></g><g stroke-linecap="round" transform="translate(10 359.5700194760316) rotate(0 131.5 16)"><path d="M1.55 -0.21 C85.64 1.21, 168.49 1.2, 263.48 0.2 M-0.52 0.59 C102.4 -1.44, 204.2 -1.51, 262.37 0.25 M263.95 0.47 C262.74 11.75, 261.97 24.98, 264.25 32.43 M262.91 -0.66 C262.29 10.84, 262.3 22.22, 262.84 32.47 M261.73 32.39 C177.61 33.54, 89.69 32.99, -0.51 30.76 M262.46 32.45 C193.34 31.13, 124.65 30.44, 0.63 31.44 M1.88 33.58 C-1.15 22.78, -2.19 7.67, -0.58 -0.1 M0.23 32.88 C-0.55 24.72, -0.38 19.61, 0.39 -0.77" stroke="#000000" stroke-width="1" fill="none"></path></g><g transform="translate(15 365.5700194760316) rotate(0 126.5 10)"><text x="126.5" y="14" font-family="Virgil, Segoe UI Emoji" font-size="16px" fill="#000000" text-anchor="middle" style="white-space: pre;" direction="ltr">Pick new server</text></g><g stroke-linecap="round"><g transform="translate(148.12919211312237 392.5700194760316) rotate(0 -0.8886120881752504 14.77881434477922)"><path d="M0.06 -0.37 C-0.03 4.55, -1.02 24.63, -1.19 29.62 M-1.37 -1.61 C-1.51 3.51, -1.84 25.75, -1.83 31.17" stroke="#000000" stroke-width="1" fill="none"></path></g><g transform="translate(148.12919211312237 392.5700194760316) rotate(0 -0.8886120881752504 14.77881434477922)"><path d="M-2.45 30.7 L-6.2 18.37 L3.94 16.23 L-3.72 32.73" stroke="none" stroke-width="0" fill="#000000" fill-rule="evenodd"></path><path d="M-2.29 31.89 C-3.3 28.87, -4.84 25.56, -8.36 17.53 M-1.42 30.59 C-4.01 28.14, -4.97 25.05, -8.1 16.96 M-8.69 18.72 C-6.16 18.77, -1.57 18.66, 5.47 17.59 M-7.92 17.19 C-6.03 17.5, -2.24 18.32, 4.39 18.29 M4.07 16.54 C3.82 21.18, 1.14 27.03, -0.43 30.36 M4.79 18.24 C2.04 21.81, 0.18 26.63, -1.3 31.1 M-1.83 31.17 C-1.83 31.17, -1.83 31.17, -1.83 31.17 M-1.83 31.17 C-1.83 31.17, -1.83 31.17, -1.83 31.17" stroke="#000000" stroke-width="1" fill="none"></path></g></g><g stroke-linecap="round" transform="translate(684.1388923792156 457.6237120688552) rotate(0 104 25)"><path d="M-0.26 1.63 C52.59 0.64, 110.24 1.71, 209.46 -1.13 M-0.53 -0.53 C49.55 2.32, 99.11 2.05, 208.48 0.4 M207.95 1.56 C206.46 8.31, 206.46 18.79, 208.13 49.76 M207.24 -0.35 C207.71 11.87, 208.25 24.6, 207.88 49.87 M208.4 49.8 C143.84 51.66, 77.14 52.01, 1.74 51.11 M208.25 49.86 C143.05 51.73, 77.71 51.57, -0.61 50.43 M1.66 50.27 C-1.33 29.59, -2.12 10.68, -1.08 -1.07 M-0.23 49.78 C-0.19 33.18, -0.19 15.17, 0.3 0.27" stroke="#000000" stroke-width="1" fill="none"></path></g><g transform="translate(689.1388923792156 462.6237120688552) rotate(0 99 20)"><text x="99" y="14" font-family="Virgil, Segoe UI Emoji" font-size="16px" fill="#000000" text-anchor="middle" style="white-space: pre;" direction="ltr">10.0.0.1 is "ready"</text><text x="99" y="34" font-family="Virgil, Segoe UI Emoji" font-size="16px" fill="#000000" text-anchor="middle" style="white-space: pre;" direction="ltr">10.0.0.2 is "connecting"</text></g><g stroke-linecap="round"><g transform="translate(947.5186907080474 442.9471005842811) rotate(0 -26.798875422023457 15.724531194939573)"><path d="M0.67 -0.83 C-8.28 4.54, -45.09 26.92, -54.27 32.28 M-0.43 1.35 C-8.96 6.4, -43.41 25.51, -52.01 30.73" stroke="#000000" stroke-width="1" fill="none"></path></g><g transform="translate(947.5186907080474 442.9471005842811) rotate(0 -26.798875422023457 15.724531194939573)"><path d="M-51.44 32.43 L-43.29 20.1 L-36.62 30.07 L-51.47 28.84" stroke="none" stroke-width="0" fill="#000000" fill-rule="evenodd"></path><path d="M-53.05 29.66 C-48.47 26.34, -47.5 24.63, -44.77 17.85 M-51.95 30.26 C-49.9 26.79, -47.76 23.2, -43.81 18.97 M-44.15 18.24 C-40.89 20.99, -39.35 25.57, -35.8 28.18 M-43.45 18.78 C-41.43 21.55, -39.94 23.07, -37.08 29.02 M-37.96 28.62 C-42.96 30.63, -47.86 31.04, -50.84 29.66 M-37.33 30.01 C-41.67 29.21, -46.28 30.87, -51.6 30.61 M-52.01 30.73 C-52.01 30.73, -52.01 30.73, -52.01 30.73 M-52.01 30.73 C-52.01 30.73, -52.01 30.73, -52.01 30.73" stroke="#000000" stroke-width="1" fill="none"></path></g></g><g stroke-linecap="round" transform="translate(943.4593516366135 495.5118348306828) rotate(0 135.5 16.5)"><path d="M0.06 -0.73 C80.17 -0.68, 157.61 -0.43, 272.54 1 M0.53 -0.68 C97.85 -1.1, 195.93 -0.17, 271.64 -0.77 M272.51 -0.14 C270.75 5.39, 272.1 15.35, 271.97 32.99 M270.66 0.41 C270.51 8.62, 271.91 15.67, 271.88 32.59 M271.16 31.64 C188.44 35.1, 107.6 34.03, -1.24 32.57 M270.31 33.36 C176.11 31.74, 80.59 32.31, -0.65 32.79 M-0.44 33.38 C0.17 25.34, -1.14 19.63, 1.51 1.21 M-0.27 32.08 C0.73 25, -0.09 17.15, 0.29 -0.37" stroke="#000000" stroke-width="1" fill="none"></path></g><g transform="translate(948.4593516366135 502.0118348306828) rotate(0 130.5 10)"><text x="130.5" y="14" font-family="Virgil, Segoe UI Emoji" font-size="16px" fill="#000000" text-anchor="middle" style="white-space: pre;" direction="ltr">Sub-conn for 10.0.0.2 is "ready"</text></g><g stroke-linecap="round" transform="translate(686.157017654079 531.3719058239599) rotate(0 104 25)"><path d="M0.18 -1.13 C75.16 -1.51, 148.21 -1.56, 206.91 -1.69 M0.34 -0.6 C81.37 0.03, 162.29 0.38, 207.88 0.08 M209.08 -1.49 C207.87 18.89, 208.91 38.6, 209.34 50.87 M207.75 0.2 C208.35 14.26, 207.96 28.91, 207.99 50.64 M208.33 50.75 C140.54 50.55, 73.91 49.83, 0.15 49.49 M207.67 50.03 C142.44 50.6, 78.08 50.74, 0.84 50.54 M-1.26 49.93 C0.79 37.41, 2.11 28.26, -0.14 0.74 M0.4 50.82 C-1.06 30.85, -0.81 12.98, -0.72 -0.52" stroke="#000000" stroke-width="1" fill="none"></path></g><g transform="translate(691.157017654079 536.3719058239599) rotate(0 99 20)"><text x="99" y="14" font-family="Virgil, Segoe UI Emoji" font-size="16px" fill="#000000" text-anchor="middle" style="white-space: pre;" direction="ltr">10.0.0.1 is "ready"</text><text x="99" y="34" font-family="Virgil, Segoe UI Emoji" font-size="16px" fill="#000000" text-anchor="middle" style="white-space: pre;" direction="ltr">10.0.0.2 is "ready"</text></g><g stroke-linecap="round"><g transform="translate(942.3806307721297 520.3170429536735) rotate(0 -23.96904028875565 16.99275079703466)"><path d="M-1.16 0.2 C-9.4 5.8, -40.69 29.07, -48.37 34.72 M0.43 -0.74 C-7.55 5.05, -38.18 27.03, -46.25 33.08" stroke="#000000" stroke-width="1" fill="none"></path></g><g transform="translate(942.3806307721297 520.3170429536735) rotate(0 -23.96904028875565 16.99275079703466)"><path d="M-44.53 34.44 L-38.73 21.7 L-32.36 30.26 L-44.78 34.53" stroke="none" stroke-width="0" fill="#000000" fill-rule="evenodd"></path><path d="M-46 31.66 C-42.43 28.07, -40.39 24.4, -37.8 19.43 M-46.5 33.57 C-42.94 28.37, -41.59 24.28, -39.36 19.29 M-38.06 20.97 C-36.52 23.61, -35.54 24.35, -31.01 29.82 M-38.75 20.05 C-36.28 22.54, -35.37 25.08, -31.25 29.79 M-31.71 29.68 C-35.71 31.31, -39.27 31.85, -46.95 34.07 M-30.8 30.65 C-35.35 30.61, -39.78 32.37, -46.9 33.18 M-46.25 33.08 C-46.25 33.08, -46.25 33.08, -46.25 33.08 M-46.25 33.08 C-46.25 33.08, -46.25 33.08, -46.25 33.08" stroke="#000000" stroke-width="1" fill="none"></path></g></g><g stroke-linecap="round" transform="translate(943.697618898032 569.5843673430913) rotate(0 146.5 16)"><path d="M-1.13 0.91 C81.53 -0.51, 162.6 1.44, 294.07 1.05 M0.07 -0.74 C106.16 0.54, 211.7 0.24, 292.71 0.34 M293.7 -1.7 C291.43 10.76, 293.79 18.19, 293.38 32.47 M292.6 0.83 C292.23 9.34, 293.58 17.53, 293.18 32.42 M293.68 32.3 C201.32 32.29, 113.42 32.48, -0.09 30.94 M292.57 32.33 C212.45 31.1, 132.48 31.8, -0.38 32.12 M0.3 30.14 C-0.72 18.5, 0.97 8.94, -0.56 -0.76 M-0.27 31.01 C-1.06 21.74, -0.52 13.19, 0.41 0.5" stroke="#000000" stroke-width="1" fill="none"></path></g><g transform="translate(948.697618898032 575.5843673430913) rotate(0 141.5 10)"><text x="141.5" y="14" font-family="Virgil, Segoe UI Emoji" font-size="16px" fill="#000000" text-anchor="middle" style="white-space: pre;" direction="ltr">Sub-conn for 10.0.0.1 is "shutdown"</text></g><g stroke-linecap="round" transform="translate(682.1077307281507 613.1461880379443) rotate(0 104 15)"><path d="M0.77 1.67 C67.31 -1.8, 134.26 -0.48, 206.37 1.28 M-0.14 -0.51 C55.09 -0.8, 109.45 -0.21, 208.3 0.62 M207.12 -0.96 C208.21 9.69, 209.88 23.34, 209.98 30.12 M207.95 -0.02 C207.46 9.8, 207.55 21.23, 208.16 29.56 M208.69 31.07 C131.93 31.31, 51.68 29.75, 1.33 30.07 M208.23 30.69 C160.76 32.67, 113.5 31.85, -0.25 29.58 M-1.25 29.23 C0.55 19.28, 1.19 7.95, -0.02 1.07 M-0.97 30.85 C-0.56 22.22, 0.28 15.99, 0 -0.72" stroke="#000000" stroke-width="1" fill="none"></path></g><g transform="translate(687.1077307281507 618.1461880379443) rotate(0 99 10)"><text x="99" y="14" font-family="Virgil, Segoe UI Emoji" font-size="16px" fill="#000000" text-anchor="middle" style="white-space: pre;" direction="ltr">10.0.0.2 is "ready"</text></g><g stroke-linecap="round"><g transform="translate(942.697618898032 590.723863767103) rotate(0 -26.65437846157147 19.99086089727234)"><path d="M0.04 -0.46 C-8.99 6.15, -44.49 33.57, -53.34 40.4 M-1.4 -1.74 C-10.1 4.96, -42.18 34.49, -50.95 41.73" stroke="#000000" stroke-width="1" fill="none"></path></g><g transform="translate(942.697618898032 590.723863767103) rotate(0 -26.65437846157147 19.99086089727234)"><path d="M-50.43 42.77 L-43.97 26.75 L-36.87 37.82 L-51.98 43.35" stroke="none" stroke-width="0" fill="#000000" fill-rule="evenodd"></path><path d="M-51.52 40.98 C-49.3 36.28, -46.94 30.65, -45.65 27.53 M-50.91 42.25 C-49.48 37.03, -46.34 32.65, -44.41 27.66 M-44.61 27.42 C-42.81 31.59, -38.01 34.67, -37.27 36.56 M-45.51 27.5 C-42.94 29.28, -41.52 32.17, -36.05 37.37 M-35.07 36.55 C-42.71 40.04, -48.74 39.21, -50.46 40.95 M-36.72 37.47 C-40.38 38.5, -45.71 40.8, -51.07 41.33 M-50.95 41.73 C-50.95 41.73, -50.95 41.73, -50.95 41.73 M-50.95 41.73 C-50.95 41.73, -50.95 41.73, -50.95 41.73" stroke="#000000" stroke-width="1" fill="none"></path></g></g><g stroke-linecap="round"><g transform="translate(143.5327008858444 455.6050292140476) rotate(0 -0.25715857878117276 18.66010481923422)"><path d="M-0.78 0 C-1.01 6.08, -1.52 31.13, -1.68 37.45 M1 -1.05 C1.2 5.05, 1.34 31.72, 0.7 38.37" stroke="#000000" stroke-width="1" fill="none"></path></g><g transform="translate(143.5327008858444 455.6050292140476) rotate(0 -0.25715857878117276 18.66010481923422)"><path d="M2.15 37.17 L-3.57 23.45 L6.81 25.83 L-0.05 36.92" stroke="none" stroke-width="0" fill="#000000" fill-rule="evenodd"></path><path d="M0.69 37.58 C-2.48 33.67, -3.5 31.69, -5.22 24.48 M1.26 38.45 C-0.68 34.8, -2.16 31.65, -4.5 24.79 M-5.61 24.99 C-1.77 24.54, 2.4 24.56, 7.1 26 M-4.91 24.26 C-2.06 24, 2.38 24.6, 7.55 25.12 M6.59 23.92 C4.28 28.92, 1.81 34.62, -0.66 39.01 M7.95 24.87 C5.07 28.97, 3.58 32.22, 0.14 38.06 M0.7 38.37 C0.7 38.37, 0.7 38.37, 0.7 38.37 M0.7 38.37 C0.7 38.37, 0.7 38.37, 0.7 38.37" stroke="#000000" stroke-width="1" fill="none"></path></g></g><g stroke-linecap="round" transform="translate(12.71698498460637 495.2271784884074) rotate(0 131.5 15)"><path d="M-0.27 -0.11 C81.97 -1.06, 164.48 0.98, 262.16 1.27 M0.56 -0.13 C65.38 -0.75, 129.9 0.44, 262.5 -0.77 M263.98 0.46 C262.38 10.71, 264.13 24.41, 263.11 28.24 M263.19 0.45 C263.35 11.46, 262.96 21.81, 262.68 29.35 M262.53 28.65 C195.52 32.97, 127.29 32.75, -0.93 31.58 M262.61 30.16 C172.75 31.57, 82.24 31.61, 0.57 29.25 M-0.92 31.36 C-1.84 23.17, 2.04 13.33, -0.36 1.16 M0.18 29.31 C0.48 17.29, 0.42 6.92, -0.09 0.12" stroke="#000000" stroke-width="1" fill="none"></path></g><g transform="translate(17.71698498460637 500.2271784884074) rotate(0 126.5 10)"><text x="126.5" y="14" font-family="Virgil, Segoe UI Emoji" font-size="16px" fill="#000000" text-anchor="middle" style="white-space: pre;" direction="ltr">wait for ready address</text></g><g stroke-linecap="round"><g transform="translate(139.88742200899287 529.9355406169493) rotate(0 0.8598574588268093 41.31326724531891)"><path d="M-0.32 0.75 C0.07 14.65, 1.68 68.79, 2.04 82.53 M1.71 0.1 C1.97 13.72, 1.24 67.1, 1.12 80.66" stroke="#000000" stroke-width="1" fill="none"></path></g><g transform="translate(139.88742200899287 529.9355406169493) rotate(0 0.8598574588268093 41.31326724531891)"><path d="M1.3 78.69 L-6.86 66.26 L8.16 65.46 L0.82 79.53" stroke="none" stroke-width="0" fill="#000000" fill-rule="evenodd"></path><path d="M2.05 80.7 C0.11 76.69, -0.79 71.77, -6.11 66.18 M0.89 80.06 C-0.94 76.95, -2.64 72.7, -4.61 67.34 M-4.62 66.62 C-0.59 66.59, 3.14 66.83, 8.46 66.25 M-4.74 66.87 C-0.06 67.25, 5.5 66.56, 7.21 67.43 M8.59 66.84 C5.6 71.05, 3.94 75.88, 2.35 79.94 M7.66 67.43 C6.15 71.17, 4.82 73.79, 1.84 81.3 M1.12 80.66 C1.12 80.66, 1.12 80.66, 1.12 80.66 M1.12 80.66 C1.12 80.66, 1.12 80.66, 1.12 80.66" stroke="#000000" stroke-width="1" fill="none"></path></g></g><g stroke-linecap="round"><g transform="translate(677.7895489099701 630.7834940074777) rotate(0 -198.79058625439143 -0.21023911352449431)"><path d="M0.35 0.79 C-65.91 0.83, -330.57 0.71, -396.86 0.8 M-0.93 0.16 C-67.43 -0.24, -332.27 -1.09, -397.93 -1.22" stroke="#000000" stroke-width="1" fill="none"></path></g><g transform="translate(677.7895489099701 630.7834940074777) rotate(0 -198.79058625439143 -0.21023911352449431)"><path d="M-397.28 -1.62 L-384.7 -7.75 L-383.07 3.4 L-397.77 -0.05" stroke="none" stroke-width="0" fill="#000000" fill-rule="evenodd"></path><path d="M-396.94 -1.51 C-392.81 -4.47, -387.26 -6.76, -383.09 -8.23 M-397.87 -0.92 C-394.25 -2.39, -390.4 -4.89, -383.6 -6.88 M-384.5 -6.55 C-383.44 -4.2, -384.16 -2.01, -384.36 5.49 M-384.07 -7.93 C-384.24 -3.29, -384.07 -0.03, -384.74 5.44 M-384.9 5.57 C-389.74 2.84, -393.53 0.68, -397.89 -0.2 M-385.09 5.86 C-389.92 1.95, -394.58 -0.19, -398 -1.09 M-397.93 -1.22 C-397.93 -1.22, -397.93 -1.22, -397.93 -1.22 M-397.93 -1.22 C-397.93 -1.22, -397.93 -1.22, -397.93 -1.22" stroke="#000000" stroke-width="1" fill="none"></path></g></g><g stroke-linecap="round" transform="translate(12.323694791730304 620.7739209650049) rotate(0 131.5 15)"><path d="M1.16 -0.85 C77.36 -1.82, 154.23 0.52, 261.7 -0.51 M0.12 0.47 C62.5 1.83, 125.03 2.3, 262.43 -0.46 M261.78 0.43 C263.1 11.17, 264.1 22.28, 262.13 30.74 M263.82 -0.18 C263.26 11.93, 262.96 23.6, 263.09 30.41 M264.41 29.15 C160.72 29.12, 58.19 28.41, 0.3 30.7 M263.74 30.73 C172.61 29.46, 83.81 30.3, 0.5 29.5 M1.84 28.76 C0.34 18.72, 1.41 7.68, -0.14 1.05 M-0.51 30.18 C-0.16 19.87, -0.01 8.41, 0.62 0.27" stroke="#2b8a3e" stroke-width="1" fill="none"></path></g><g transform="translate(17.323694791730304 625.7739209650049) rotate(0 126.5 10)"><text x="126.5" y="14" font-family="Virgil, Segoe UI Emoji" font-size="16px" fill="#2b8a3e" text-anchor="middle" style="white-space: pre;" direction="ltr">Connected to 10.0.0.2</text></g></svg>